<svg width="140" height="40" viewBox="0 0 140 40" fill="none" xmlns="http://www.w3.org/2000/svg">
<g clip-path="url(#clip0_157_1211)">
<g clip-path="url(#clip1_157_1211)">
<path d="M138.883 35.8783C138.883 36.6935 138.649 37.4904 138.21 38.1681C137.772 38.8459 137.148 39.3742 136.419 39.6861C135.69 39.998 134.887 40.0796 134.113 39.9206C133.339 39.7616 132.628 39.3691 132.07 38.7927C131.512 38.2163 131.131 37.4819 130.977 36.6824C130.823 35.8829 130.902 35.0542 131.205 34.3011C131.507 33.548 132.018 32.9043 132.675 32.4514C133.331 31.9986 134.102 31.7568 134.892 31.7568C135.416 31.7568 135.935 31.8635 136.419 32.0706C136.903 32.2777 137.343 32.5813 137.714 32.964C138.085 33.3467 138.379 33.8011 138.579 34.3011C138.78 34.8012 138.883 35.3371 138.883 35.8783" fill="white"/>
<path d="M49.1283 14.2714C48.2431 13.0525 47.0794 12.079 45.7412 11.4376C44.4029 10.7963 42.9317 10.5071 41.4588 10.5959C39.8102 10.5902 38.203 11.1291 36.8721 12.1338C35.5941 13.0169 34.6808 14.3603 34.3106 15.9016H34.0574V0H26.5369V32.7259H24.1095V20.669C24.1917 19.2816 23.9767 17.8926 23.48 16.6008C22.9832 15.3089 22.2168 14.1461 21.2353 13.1949C19.349 11.4827 16.5046 10.6267 12.7021 10.6267C10.4008 10.5217 8.10975 11.0022 6.03048 12.0262C4.39416 12.9686 2.99614 14.2964 1.95001 15.9016L6.41765 20.0077C7.02231 19.1448 7.75629 18.3868 8.59193 17.7624C9.64604 17.0487 10.8922 16.6987 12.1511 16.7628C12.7661 16.6987 13.3873 16.7712 13.9729 16.9754C14.5585 17.1797 15.0951 17.5109 15.5465 17.947C16.2603 18.8333 16.6269 19.9635 16.5741 21.115V22.8374H12.3596C9.43327 22.6806 6.52712 23.4188 4.00513 24.9596C2.99435 25.6681 2.17984 26.6365 1.64188 27.7691C1.10392 28.9017 0.861093 30.1596 0.937357 31.4187C0.892095 32.4838 1.05758 33.5473 1.42373 34.5441C1.78988 35.541 2.349 36.4503 3.06692 37.2165C3.89592 37.9862 4.86618 38.5761 5.92014 38.9512C6.9741 39.3263 8.09032 39.479 9.20251 39.4002C11.0088 39.4629 12.7938 38.9821 14.3403 38.0161C15.0269 37.5585 15.6179 36.9635 16.0783 36.2662C16.5386 35.5689 16.8592 34.7834 17.0209 33.9562H17.3336C17.5043 35.288 18.102 36.5224 19.0313 37.4625C19.9399 38.3453 21.1499 38.8208 22.3969 38.7851H34.0277V34.1715H34.2808C34.4838 34.9118 34.8115 35.6093 35.2488 36.2322C35.682 36.882 36.2212 37.4492 36.8423 37.9085C37.48 38.3918 38.1891 38.7656 38.9421 39.0158C39.7464 39.2778 40.5857 39.4075 41.429 39.4002C42.9032 39.4873 44.3753 39.1958 45.7137 38.5517C47.052 37.9076 48.2149 36.9311 49.0985 35.7093C50.826 33.2488 51.6897 29.6604 51.6897 24.9443C51.6897 20.2281 50.8359 16.6705 49.1283 14.2714ZM16.6039 30.4345C16.6427 30.9709 16.5365 31.508 16.2973 31.9858C16.058 32.4637 15.695 32.8636 15.2487 33.1411C14.2706 33.7175 13.1577 34.0048 12.032 33.9715C11.1192 34.029 10.2121 33.7867 9.44075 33.2795C9.12777 33.0132 8.88176 32.6729 8.72359 32.2873C8.56542 31.9017 8.49981 31.4824 8.53235 31.065V30.2807C8.53235 28.2353 10.0216 27.2049 13 27.2049H16.6634L16.6039 30.4345ZM43.9011 27.3587C43.9813 28.8837 43.4786 30.3802 42.5013 31.5263C42.0551 32.0302 41.5087 32.4286 40.8995 32.694C40.2903 32.9594 39.6327 33.0857 38.9719 33.0642C37.7196 33.1156 36.4855 32.7429 35.4573 32.0031C35.0049 31.666 34.6404 31.2186 34.3961 30.7007C34.1519 30.1828 34.0355 29.6106 34.0574 29.035V20.915C34.0355 20.3394 34.1519 19.7672 34.3961 19.2493C34.6404 18.7314 35.0049 18.284 35.4573 17.947C36.4841 17.2027 37.7181 16.8247 38.9719 16.8704C39.6326 16.8499 40.2899 16.9767 40.8989 17.2421C41.5079 17.5075 42.0545 17.9052 42.5013 18.4083C43.4786 19.5545 43.9813 21.051 43.9011 22.5759V27.3587Z" fill="white"/>
<path d="M128.458 38.7849V32.6334H122.502L117.557 24.944L126.388 11.1032H118.466L113.641 19.7614H113.566L108.533 11.1955H94.6087L89.7389 19.9152H89.5304L84.6161 11.1955H76.0828L84.765 24.7287L79.7761 32.7257H75.5617V20.6688C75.6521 19.2787 75.444 17.8852 74.9523 16.5878C74.4605 15.2905 73.6974 14.1213 72.7173 13.1639C70.8111 11.4569 67.9815 10.5957 64.1841 10.5957C61.8826 10.4887 59.5911 10.9694 57.5124 11.9951C55.8713 12.9309 54.472 14.26 53.4319 15.8706L57.8996 19.9767C58.5002 19.1102 59.2348 18.3517 60.0738 17.7314C61.1279 17.0177 62.3741 16.6678 63.6331 16.7318C64.2479 16.6707 64.8682 16.7446 65.4534 16.9487C66.0386 17.1528 66.5754 17.4824 67.0285 17.916C67.7369 18.8045 68.098 19.9345 68.0411 21.084V22.8064H63.8267C60.8942 22.6795 57.9914 23.4557 55.4871 25.0363C54.4714 25.7408 53.6522 26.7079 53.1114 27.8412C52.5705 28.9745 52.3267 30.2344 52.4044 31.4954C52.3584 32.5619 52.5251 33.6268 52.8939 34.6241C53.2628 35.6214 53.8261 36.5298 54.5488 37.2931C55.3769 38.0643 56.347 38.6552 57.4012 39.0304C58.4555 39.4056 59.5721 39.5575 60.6844 39.4769C62.486 39.5393 64.2661 39.0583 65.8073 38.0928C66.4956 37.6353 67.0886 37.0406 67.5514 36.3435C68.0143 35.6463 68.3377 34.8608 68.5028 34.0329H68.8006C68.9713 35.3647 69.569 36.5991 70.4983 37.5392C71.4123 38.4229 72.6273 38.8982 73.8788 38.8617H81.0717C81.6299 38.9137 82.1925 38.8418 82.7216 38.6508C83.2507 38.4598 83.7341 38.1542 84.1395 37.7545C85.0461 36.5909 85.8253 35.3273 86.4627 33.9867V33.9867L88.7263 29.8652H88.9348L91.3026 34.0175H91.392C92.008 35.3314 92.7729 36.5652 93.6705 37.693C94.0753 38.0935 94.5586 38.3997 95.0879 38.5907C95.6171 38.7817 96.18 38.8532 96.7383 38.8003H105.018C105.577 38.8532 106.139 38.7817 106.669 38.5907C107.198 38.3997 107.681 38.0935 108.086 37.693C109.001 36.5328 109.786 35.2687 110.424 33.9252V33.9252L112.688 29.8191H112.881L115.264 33.9713H115.339C115.958 35.2834 116.722 36.5169 117.617 37.6469C118.026 38.0461 118.512 38.3513 119.043 38.5421C119.575 38.733 120.139 38.8053 120.7 38.7541L128.458 38.7849ZM68.0262 30.465C68.0665 30.9999 67.9626 31.536 67.7261 32.0137C67.4895 32.4914 67.1295 32.8922 66.6859 33.1716C65.7023 33.7479 64.5848 34.035 63.4544 34.0021C62.5461 34.0605 61.6435 33.8181 60.878 33.3101C60.5623 33.0454 60.3134 32.7057 60.1526 32.32C59.9918 31.9344 59.9239 31.5142 59.9547 31.0955V30.3112C59.9547 28.2658 61.4439 27.2354 64.4223 27.2354H68.0709L68.0262 30.465ZM101.251 13.2408L108.697 24.7902L103.708 32.7257H98.6742L93.73 25.0363L101.251 13.2408Z" fill="white"/>
</g>
</g>
<defs>
<clipPath id="clip0_157_1211">
<rect width="138.462" height="40" fill="white" transform="translate(0.679321)"/>
</clipPath>
<clipPath id="clip1_157_1211">
<rect width="137.886" height="40" fill="white" transform="translate(0.96698)"/>
</clipPath>
</defs>
</svg>
