<svg width="135" height="40" viewBox="0 0 135 40" fill="none" xmlns="http://www.w3.org/2000/svg">
<path d="M9.42551 0.0228271V6.52712C8.60392 5.4773 7.32588 4.81546 5.70552 4.81546C2.51043 4.81546 0 7.39436 0 10.909C0 14.4007 2.51043 17.0025 5.70552 17.0025C7.32588 17.0025 8.60392 16.3178 9.42551 15.268V16.6829H12.4608V0.0228271H9.42551ZM6.23042 14.3094C4.33619 14.3094 2.98969 12.8945 2.98969 10.8861C2.98969 8.90062 4.33619 7.50847 6.23042 7.50847C8.05619 7.50847 9.5168 8.90062 9.5168 10.8861C9.5168 12.8945 8.05619 14.3094 6.23042 14.3094Z" fill="#332A26"/>
<path d="M20.9856 17.0025C24.0209 17.0025 25.8923 15.2223 26.5542 13.7161L23.8384 12.9173C23.3819 13.7845 22.4919 14.4464 21.0312 14.4464C18.9316 14.4464 17.8818 13.3053 17.6764 11.8218H26.6455C26.7139 11.4567 26.7139 11.1144 26.7139 10.7492C26.7139 7.44 24.5458 4.81546 20.7574 4.81546C17.1287 4.81546 14.7095 7.46282 14.7095 10.909C14.7095 14.5605 17.2884 17.0025 20.9856 17.0025ZM17.6764 9.92761C17.8362 8.60393 18.9773 7.37154 20.7346 7.37154C22.5375 7.37154 23.633 8.51264 23.7699 9.92761H17.6764Z" fill="#332A26"/>
<path d="M33.5315 17.0025C36.4755 17.0025 38.5295 15.4049 38.5295 13.2368C38.5295 11.16 37.0233 10.4525 35.2888 9.95043L32.4132 9.12884C31.7742 8.94626 31.4547 8.6724 31.4547 8.21595C31.4547 7.66822 32.1622 7.16614 33.0979 7.16614C34.3074 7.16614 35.1519 7.78233 35.5627 8.51264L38.2328 7.73669C37.5025 6.00221 35.6083 4.81546 33.1207 4.81546C30.5875 4.81546 28.4878 6.34454 28.4878 8.28442C28.4878 9.92761 29.6974 10.8861 31.3406 11.3654L34.2846 12.2326C35.129 12.4837 35.5627 12.8032 35.5627 13.3737C35.5627 14.0128 34.8095 14.5605 33.6456 14.5605C32.1165 14.5605 31.0211 13.7389 30.6331 12.6434L27.9173 13.4422C28.4878 15.3136 30.6787 17.0025 33.5315 17.0025Z" fill="#332A26"/>
<path d="M40.8016 16.6829H43.8369V5.13497H40.8016V16.6829Z" fill="#332A26"/>
<path d="M55.4915 5.13497V6.48147C54.6242 5.40884 53.369 4.81546 51.84 4.81546C48.5308 4.81546 46.1344 7.21178 46.1344 10.6807C46.1344 13.9671 48.5308 16.546 51.84 16.546C53.369 16.546 54.6242 15.9526 55.4915 14.88V16.2721C55.4687 17.9838 54.5101 19.3075 52.6159 19.3075C51.1553 19.3075 50.1968 18.7598 49.6034 17.824L46.9789 18.7598C47.9374 20.4942 49.7175 21.7951 52.5474 21.7951C56.1533 21.7951 58.504 19.4901 58.504 16.2721V5.13497H55.4915ZM52.3649 13.8302C50.4478 13.8302 49.1241 12.5521 49.1241 10.6807C49.1241 8.80933 50.4478 7.53129 52.3649 7.53129C54.2135 7.53129 55.56 8.83215 55.56 10.6807C55.56 12.5521 54.2135 13.8302 52.3649 13.8302Z" fill="#332A26"/>
<path d="M68.1948 4.81546C66.5288 4.81546 65.2736 5.56859 64.4748 6.59559V5.13497H61.4623V16.6829H64.4748V10.9774C64.4748 8.94626 65.5703 7.62258 67.2591 7.62258C68.9251 7.62258 69.7239 8.74086 69.7239 10.4982V16.6829H72.7364V9.92761C72.7364 6.84663 71.2073 4.81546 68.1948 4.81546Z" fill="#332A26"/>
<path d="M40.793 34.8878H43.8055V18.2277H40.793V34.8878Z" fill="#332A26"/>
<path d="M52.3345 35.2073C55.3699 35.2073 57.2413 33.4272 57.9031 31.921L55.1873 31.1222C54.7308 31.9894 53.8408 32.6513 52.3802 32.6513C50.2805 32.6513 49.2307 31.5102 49.0253 30.0267H57.9944C58.0629 29.6616 58.0629 29.3193 58.0629 28.9541C58.0629 25.6449 55.8948 23.0204 52.1063 23.0204C48.4776 23.0204 46.0585 25.6677 46.0585 29.1139C46.0585 32.7654 48.6373 35.2073 52.3345 35.2073ZM49.0253 28.1325C49.1851 26.8088 50.3262 25.5764 52.0835 25.5764C53.8864 25.5764 54.9819 26.7175 55.1188 28.1325H49.0253Z" fill="#332A26"/>
<path d="M68.0209 23.3399L64.8487 31.5558L61.6764 23.3399H58.3672L63.137 34.8878H66.5375L71.3073 23.3399H68.0209Z" fill="#332A26"/>
<path d="M78.0762 35.2073C81.1115 35.2073 82.9829 33.4272 83.6448 31.921L80.929 31.1222C80.4725 31.9894 79.5825 32.6513 78.1218 32.6513C76.0222 32.6513 74.9724 31.5102 74.767 30.0267H83.7361C83.8045 29.6616 83.8045 29.3193 83.8045 28.9541C83.8045 25.6449 81.6364 23.0204 77.848 23.0204C74.2193 23.0204 71.8001 25.6677 71.8001 29.1139C71.8001 32.7654 74.379 35.2073 78.0762 35.2073ZM74.767 28.1325C74.9268 26.8088 76.0679 25.5764 77.8252 25.5764C79.6281 25.5764 80.7236 26.7175 80.8605 28.1325H74.767Z" fill="#332A26"/>
<path d="M89.093 25.0515V23.3399H86.0805V34.8878H89.093V29.867C89.093 26.7632 90.4395 25.6221 92.9043 26.01V23.1801C91.1014 22.9291 89.7777 23.705 89.093 25.0515Z" fill="#332A26"/>
<path d="M99.2134 35.2073C100.834 35.2073 102.112 34.5227 102.933 33.4729V34.8878H105.969V23.3399H102.933V24.732C102.112 23.6822 100.834 23.0204 99.2134 23.0204C96.0183 23.0204 93.5078 25.5993 93.5078 29.1139C93.5078 32.6056 96.0183 35.2073 99.2134 35.2073ZM99.7383 32.5143C97.844 32.5143 96.4975 31.0994 96.4975 29.091C96.4975 27.1055 97.844 25.7134 99.7383 25.7134C101.564 25.7134 103.025 27.1055 103.025 29.091C103.025 31.0994 101.564 32.5143 99.7383 32.5143Z" fill="#332A26"/>
<path d="M117.574 23.3399V24.6864C116.707 23.6137 115.452 23.0204 113.923 23.0204C110.614 23.0204 108.217 25.4167 108.217 28.8856C108.217 32.172 110.614 34.7509 113.923 34.7509C115.452 34.7509 116.707 34.1575 117.574 33.0849V34.477C117.552 36.1887 116.593 37.5124 114.699 37.5124C113.238 37.5124 112.28 36.9646 111.686 36.0289L109.062 36.9646C110.02 38.6991 111.8 40 114.63 40C118.236 40 120.587 37.695 120.587 34.477V23.3399H117.574ZM114.448 32.0351C112.531 32.0351 111.207 30.757 111.207 28.8856C111.207 27.0142 112.531 25.7362 114.448 25.7362C116.296 25.7362 117.643 27.037 117.643 28.8856C117.643 30.757 116.296 32.0351 114.448 32.0351Z" fill="#332A26"/>
<path d="M129.114 35.2073C132.149 35.2073 134.021 33.4272 134.682 31.921L131.967 31.1222C131.51 31.9894 130.62 32.6513 129.159 32.6513C127.06 32.6513 126.01 31.5102 125.805 30.0267H134.774C134.842 29.6616 134.842 29.3193 134.842 28.9541C134.842 25.6449 132.674 23.0204 128.886 23.0204C125.257 23.0204 122.838 25.6677 122.838 29.1139C122.838 32.7654 125.417 35.2073 129.114 35.2073ZM125.805 28.1325C125.964 26.8088 127.105 25.5764 128.863 25.5764C130.666 25.5764 131.761 26.7175 131.898 28.1325H125.805Z" fill="#332A26"/>
<path d="M40.8 0H43.84V3H40.8V0Z" fill="#FF7B39"/>
</svg>
