<svg width="284" height="84" viewBox="0 0 284 84" fill="none" xmlns="http://www.w3.org/2000/svg">
<path d="M19.7936 0.0479736V13.707C18.0682 11.5024 15.3844 10.1125 11.9816 10.1125C5.27191 10.1125 1.52588e-05 15.5282 1.52588e-05 22.9089C1.52588e-05 30.2416 5.27191 35.7052 11.9816 35.7052C15.3844 35.7052 18.0682 34.2674 19.7936 32.0628V35.0342H26.1678V0.0479736H19.7936ZM13.0839 30.0499C9.10602 30.0499 6.27837 27.0784 6.27837 22.8609C6.27837 18.6913 9.10602 15.7678 13.0839 15.7678C16.918 15.7678 19.9853 18.6913 19.9853 22.8609C19.9853 27.0784 16.918 30.0499 13.0839 30.0499Z" fill="#332A26"/>
<path d="M44.0698 35.7052C50.444 35.7052 54.3739 31.9669 55.7638 28.8038L50.0606 27.1264C49.102 28.9476 47.2329 30.3374 44.1656 30.3374C39.7564 30.3374 37.5518 27.9411 37.1205 24.8259H55.9555C56.0993 24.0591 56.0993 23.3402 56.0993 22.5734C56.0993 15.624 51.5463 10.1125 43.5905 10.1125C35.9702 10.1125 30.89 15.672 30.89 22.9089C30.89 30.5771 36.3057 35.7052 44.0698 35.7052ZM37.1205 20.848C37.4559 18.0683 39.8523 15.4803 43.5426 15.4803C47.3288 15.4803 49.6292 17.8766 49.9168 20.848H37.1205Z" fill="#332A26"/>
<path d="M70.4162 35.7052C76.5987 35.7052 80.912 32.3503 80.912 27.7973C80.912 23.436 77.7489 21.9503 74.1065 20.8959L68.0678 19.1706C66.7258 18.7872 66.0549 18.2121 66.0549 17.2535C66.0549 16.1033 67.5406 15.0489 69.5056 15.0489C72.0457 15.0489 73.8189 16.3429 74.6816 17.8766L80.289 16.2471C78.7553 12.6047 74.7775 10.1125 69.5535 10.1125C64.2337 10.1125 59.8244 13.3236 59.8244 17.3973C59.8244 20.848 62.3645 22.8609 65.8152 23.8674L71.9977 25.6886C73.771 26.2158 74.6816 26.8867 74.6816 28.0849C74.6816 29.4268 73.1 30.5771 70.6558 30.5771C67.4447 30.5771 65.1443 28.8517 64.3295 26.5513L58.6263 28.2287C59.8244 32.1586 64.4254 35.7052 70.4162 35.7052Z" fill="#332A26"/>
<path d="M85.6833 35.0342H92.0575V10.7835H85.6833V35.0342Z" fill="#332A26"/>
<path d="M116.532 10.7835V13.6111C114.711 11.3586 112.075 10.1125 108.864 10.1125C101.915 10.1125 96.8823 15.1448 96.8823 22.4296C96.8823 29.331 101.915 34.7467 108.864 34.7467C112.075 34.7467 114.711 33.5006 116.532 31.248V34.1716C116.484 37.766 114.471 40.5458 110.493 40.5458C107.426 40.5458 105.413 39.3955 104.167 37.4305L98.6556 39.3955C100.669 43.0379 104.407 45.7697 110.35 45.7697C117.922 45.7697 122.858 40.9292 122.858 34.1716V10.7835H116.532ZM109.966 29.0434C105.94 29.0434 103.161 26.3595 103.161 22.4296C103.161 18.4996 105.94 15.8157 109.966 15.8157C113.848 15.8157 116.676 18.5476 116.676 22.4296C116.676 26.3595 113.848 29.0434 109.966 29.0434Z" fill="#332A26"/>
<path d="M143.209 10.1125C139.711 10.1125 137.075 11.6941 135.397 13.8508V10.7835H129.071V35.0342H135.397V23.0526C135.397 18.7872 137.698 16.0075 141.244 16.0075C144.743 16.0075 146.42 18.3558 146.42 22.0462V35.0342H152.746V20.848C152.746 14.378 149.535 10.1125 143.209 10.1125Z" fill="#332A26"/>
<path d="M85.6653 73.2644H91.9915V38.2782H85.6653V73.2644Z" fill="#332A26"/>
<path d="M109.903 73.9354C116.277 73.9354 120.207 70.1972 121.597 67.034L115.893 65.3566C114.935 67.1778 113.066 68.5677 109.998 68.5677C105.589 68.5677 103.385 66.1713 102.953 63.0561H121.788C121.932 62.2893 121.932 61.5704 121.932 60.8036C121.932 53.8543 117.379 48.3427 109.423 48.3427C101.803 48.3427 96.7228 53.9022 96.7228 61.1391C96.7228 68.8073 102.138 73.9354 109.903 73.9354ZM102.953 59.0782C103.289 56.2985 105.685 53.7105 109.375 53.7105C113.161 53.7105 115.462 56.1068 115.75 59.0782H102.953Z" fill="#332A26"/>
<path d="M142.844 49.0137L136.182 66.2672L129.52 49.0137H122.571L132.588 73.2644H139.729L149.745 49.0137H142.844Z" fill="#332A26"/>
<path d="M163.96 73.9354C170.334 73.9354 174.264 70.1972 175.654 67.034L169.951 65.3566C168.992 67.1778 167.123 68.5677 164.056 68.5677C159.647 68.5677 157.442 66.1713 157.011 63.0561H175.846C175.99 62.2893 175.99 61.5704 175.99 60.8036C175.99 53.8543 171.437 48.3427 163.481 48.3427C155.86 48.3427 150.78 53.9022 150.78 61.1391C150.78 68.8073 156.196 73.9354 163.96 73.9354ZM157.011 59.0782C157.346 56.2985 159.743 53.7105 163.433 53.7105C167.219 53.7105 169.519 56.1068 169.807 59.0782H157.011Z" fill="#332A26"/>
<path d="M187.095 52.6082V49.0137H180.769V73.2644H187.095V62.7206C187.095 56.2027 189.923 53.8063 195.099 54.6211V48.6782C191.313 48.151 188.533 49.7805 187.095 52.6082Z" fill="#332A26"/>
<path d="M208.348 73.9354C211.751 73.9354 214.435 72.4976 216.16 70.293V73.2644H222.534V49.0137H216.16V51.9372C214.435 49.7326 211.751 48.3427 208.348 48.3427C201.638 48.3427 196.366 53.7584 196.366 61.1391C196.366 68.4718 201.638 73.9354 208.348 73.9354ZM209.45 68.2801C205.472 68.2801 202.645 65.3087 202.645 61.0911C202.645 56.9216 205.472 53.998 209.45 53.998C213.284 53.998 216.352 56.9216 216.352 61.0911C216.352 65.3087 213.284 68.2801 209.45 68.2801Z" fill="#332A26"/>
<path d="M246.906 49.0137V51.8414C245.085 49.5888 242.449 48.3427 239.238 48.3427C232.289 48.3427 227.257 53.375 227.257 60.6598C227.257 67.5612 232.289 72.9769 239.238 72.9769C242.449 72.9769 245.085 71.7308 246.906 69.4783V72.4018C246.858 75.9962 244.845 78.776 240.868 78.776C237.8 78.776 235.787 77.6257 234.541 75.6608L229.03 77.6257C231.043 81.2681 234.781 84 240.724 84C248.296 84 253.233 79.1594 253.233 72.4018V49.0137H246.906ZM240.34 67.2736C236.315 67.2736 233.535 64.5898 233.535 60.6598C233.535 56.7298 236.315 54.046 240.34 54.046C244.222 54.046 247.05 56.7778 247.05 60.6598C247.05 64.5898 244.222 67.2736 240.34 67.2736Z" fill="#332A26"/>
<path d="M271.139 73.9354C277.513 73.9354 281.443 70.1972 282.833 67.034L277.13 65.3566C276.171 67.1778 274.302 68.5677 271.235 68.5677C266.826 68.5677 264.621 66.1713 264.19 63.0561H283.025C283.169 62.2893 283.169 61.5704 283.169 60.8036C283.169 53.8543 278.616 48.3427 270.66 48.3427C263.039 48.3427 257.959 53.9022 257.959 61.1391C257.959 68.8073 263.375 73.9354 271.139 73.9354ZM264.19 59.0782C264.525 56.2985 266.922 53.7105 270.612 53.7105C274.398 53.7105 276.699 56.1068 276.986 59.0782H264.19Z" fill="#332A26"/>
<path d="M85.68 0H92.064V6.3H85.68V0Z" fill="#A38CF3"/>
</svg>
