<svg width="314" height="86" viewBox="0 0 314 86" fill="none" xmlns="http://www.w3.org/2000/svg">
<path d="M20.456 0.960022V14.64C18.728 12.432 16.04 11.04 12.632 11.04C5.912 11.04 0.632004 16.464 0.632004 23.856C0.632004 31.2 5.912 36.672 12.632 36.672C16.04 36.672 18.728 35.232 20.456 33.024V36H26.84V0.960022H20.456ZM13.736 31.008C9.752 31.008 6.92 28.032 6.92 23.808C6.92 19.632 9.752 16.704 13.736 16.704C17.576 16.704 20.648 19.632 20.648 23.808C20.648 28.032 17.576 31.008 13.736 31.008Z" fill="#332A26"/>
<path d="M44.7695 36.672C51.1535 36.672 55.0895 32.928 56.4815 29.76L50.7695 28.08C49.8095 29.904 47.9375 31.296 44.8655 31.296C40.4495 31.296 38.2415 28.896 37.8095 25.776H56.6735C56.8175 25.008 56.8175 24.288 56.8175 23.52C56.8175 16.56 52.2575 11.04 44.2895 11.04C36.6575 11.04 31.5695 16.608 31.5695 23.856C31.5695 31.536 36.9935 36.672 44.7695 36.672ZM37.8095 21.792C38.1455 19.008 40.5455 16.416 44.2415 16.416C48.0335 16.416 50.3375 18.816 50.6255 21.792H37.8095Z" fill="#332A26"/>
<path d="M77.7616 11.712L71.0896 28.992L64.4176 11.712H57.4576L67.4896 36H74.6416L84.6736 11.712H77.7616Z" fill="#332A26"/>
<path d="M98.9101 36.672C105.294 36.672 109.23 32.928 110.622 29.76L104.91 28.08C103.95 29.904 102.078 31.296 99.0061 31.296C94.5901 31.296 92.3821 28.896 91.9501 25.776H110.814C110.958 25.008 110.958 24.288 110.958 23.52C110.958 16.56 106.398 11.04 98.4301 11.04C90.7981 11.04 85.7101 16.608 85.7101 23.856C85.7101 31.536 91.1341 36.672 98.9101 36.672ZM91.9501 21.792C92.2861 19.008 94.6861 16.416 98.3821 16.416C102.174 16.416 104.478 18.816 104.766 21.792H91.9501Z" fill="#332A26"/>
<path d="M115.745 36H122.081V0.960022H115.745V36Z" fill="#332A26"/>
<path d="M139.827 36.672C147.316 36.672 152.788 31.104 152.788 23.856C152.788 16.56 147.316 11.04 139.827 11.04C132.339 11.04 126.82 16.56 126.82 23.856C126.82 31.104 132.339 36.672 139.827 36.672ZM139.827 30.912C135.747 30.912 133.012 27.888 133.012 23.856C133.012 19.824 135.747 16.8 139.827 16.8C143.86 16.8 146.643 19.824 146.643 23.856C146.643 27.888 143.86 30.912 139.827 30.912Z" fill="#332A26"/>
<path d="M171.812 11.04C168.356 11.04 165.716 12.432 163.94 14.64V11.712H157.604V46.08H163.94V33.024C165.716 35.232 168.356 36.672 171.812 36.672C178.532 36.672 183.764 31.2 183.764 23.856C183.764 16.464 178.532 11.04 171.812 11.04ZM170.708 31.008C166.868 31.008 163.796 28.032 163.796 23.808C163.796 19.632 166.868 16.704 170.708 16.704C174.692 16.704 177.524 19.632 177.524 23.808C177.524 28.032 174.692 31.008 170.708 31.008Z" fill="#332A26"/>
<path d="M217.582 11.04C213.694 11.04 210.958 12.672 209.374 14.688C207.886 12.384 205.486 11.04 202.078 11.04C198.862 11.04 196.462 12.528 194.878 14.592V11.712H188.542V36H194.878V23.808C194.878 19.536 196.702 16.944 200.11 16.944C203.374 16.944 204.67 19.296 204.67 22.896V36H211.054V23.616C211.054 19.488 212.782 16.944 216.19 16.944C219.502 16.944 220.846 19.248 220.846 22.896V36H227.182V21.552C227.182 14.784 223.39 11.04 217.582 11.04Z" fill="#332A26"/>
<path d="M244.879 36.672C251.263 36.672 255.199 32.928 256.591 29.76L250.879 28.08C249.919 29.904 248.047 31.296 244.975 31.296C240.559 31.296 238.351 28.896 237.919 25.776H256.783C256.927 25.008 256.927 24.288 256.927 23.52C256.927 16.56 252.367 11.04 244.399 11.04C236.767 11.04 231.679 16.608 231.679 23.856C231.679 31.536 237.103 36.672 244.879 36.672ZM237.919 21.792C238.255 19.008 240.655 16.416 244.351 16.416C248.143 16.416 250.447 18.816 250.735 21.792H237.919Z" fill="#332A26"/>
<path d="M275.874 11.04C272.37 11.04 269.73 12.624 268.05 14.784V11.712H261.714V36H268.05V24C268.05 19.728 270.354 16.944 273.906 16.944C277.41 16.944 279.09 19.296 279.09 22.992V36H285.426V21.792C285.426 15.312 282.21 11.04 275.874 11.04Z" fill="#332A26"/>
<path d="M305.305 30.096C304.345 30.576 303.529 30.768 302.425 30.768C300.409 30.768 299.449 29.664 299.449 27.696V17.28H306.553V11.712H299.449V3.84002H293.065V11.712H288.985V17.28H293.065V27.696C293.065 32.928 295.609 36.384 301.177 36.384C303.193 36.384 304.921 36 306.841 35.232L305.305 30.096Z" fill="#332A26"/>
<path d="M115.74 75H122.076V39.96H115.74V75Z" fill="#332A26"/>
<path d="M140.015 75.672C146.399 75.672 150.335 71.928 151.727 68.76L146.015 67.08C145.055 68.904 143.183 70.296 140.111 70.296C135.695 70.296 133.487 67.896 133.055 64.776H151.919C152.063 64.008 152.063 63.288 152.063 62.52C152.063 55.56 147.503 50.04 139.535 50.04C131.903 50.04 126.815 55.608 126.815 62.856C126.815 70.536 132.239 75.672 140.015 75.672ZM133.055 60.792C133.391 58.008 135.791 55.416 139.487 55.416C143.279 55.416 145.583 57.816 145.871 60.792H133.055Z" fill="#332A26"/>
<path d="M173.007 50.712L166.335 67.992L159.663 50.712H152.703L162.735 75H169.887L179.919 50.712H173.007Z" fill="#332A26"/>
<path d="M194.155 75.672C200.539 75.672 204.475 71.928 205.867 68.76L200.155 67.08C199.195 68.904 197.323 70.296 194.251 70.296C189.835 70.296 187.627 67.896 187.195 64.776H206.059C206.203 64.008 206.203 63.288 206.203 62.52C206.203 55.56 201.643 50.04 193.675 50.04C186.043 50.04 180.955 55.608 180.955 62.856C180.955 70.536 186.379 75.672 194.155 75.672ZM187.195 60.792C187.531 58.008 189.931 55.416 193.627 55.416C197.419 55.416 199.723 57.816 200.011 60.792H187.195Z" fill="#332A26"/>
<path d="M217.326 54.312V50.712H210.99V75H217.326V64.44C217.326 57.912 220.158 55.512 225.342 56.328V50.376C221.55 49.848 218.766 51.48 217.326 54.312Z" fill="#332A26"/>
<path d="M238.611 75.672C242.019 75.672 244.707 74.232 246.435 72.024V75H252.819V50.712H246.435V53.64C244.707 51.432 242.019 50.04 238.611 50.04C231.891 50.04 226.611 55.464 226.611 62.856C226.611 70.2 231.891 75.672 238.611 75.672ZM239.715 70.008C235.731 70.008 232.899 67.032 232.899 62.808C232.899 58.632 235.731 55.704 239.715 55.704C243.555 55.704 246.627 58.632 246.627 62.808C246.627 67.032 243.555 70.008 239.715 70.008Z" fill="#332A26"/>
<path d="M277.229 50.712V53.544C275.405 51.288 272.765 50.04 269.549 50.04C262.589 50.04 257.549 55.08 257.549 62.376C257.549 69.288 262.589 74.712 269.549 74.712C272.765 74.712 275.405 73.464 277.229 71.208V74.136C277.181 77.736 275.165 80.52 271.181 80.52C268.109 80.52 266.093 79.368 264.845 77.4L259.325 79.368C261.341 83.016 265.085 85.752 271.037 85.752C278.621 85.752 283.565 80.904 283.565 74.136V50.712H277.229ZM270.653 69C266.621 69 263.837 66.312 263.837 62.376C263.837 58.44 266.621 55.752 270.653 55.752C274.541 55.752 277.373 58.488 277.373 62.376C277.373 66.312 274.541 69 270.653 69Z" fill="#332A26"/>
<path d="M301.499 75.672C307.883 75.672 311.819 71.928 313.211 68.76L307.499 67.08C306.539 68.904 304.667 70.296 301.595 70.296C297.179 70.296 294.971 67.896 294.539 64.776H313.403C313.547 64.008 313.547 63.288 313.547 62.52C313.547 55.56 308.987 50.04 301.019 50.04C293.387 50.04 288.299 55.608 288.299 62.856C288.299 70.536 293.723 75.672 301.499 75.672ZM294.539 60.792C294.875 58.008 297.275 55.416 300.971 55.416C304.763 55.416 307.067 57.816 307.355 60.792H294.539Z" fill="#332A26"/>
</svg>
