<svg width="337" height="43" viewBox="0 0 337 43" fill="none" xmlns="http://www.w3.org/2000/svg">
<path d="M17.5259 19.6156L16.7973 25.0555H0.934174V24.8577C3.02056 24.8577 3.15303 23.3081 3.15303 21.0332V6.65852C3.15303 4.38362 3.02056 2.83405 0.934174 2.83405V2.63623H16.3006L16.698 7.48276H16.4993C14.8103 3.92204 13.6843 3.16374 10.2732 3.16374H6.59723V13.1535H9.4122C12.2934 13.1535 13.022 12.3952 13.6512 10.1203H13.8499V16.945H13.6512C13.022 14.6701 12.2934 13.6481 9.4122 13.6481H6.59723V23.1103C6.59723 24.0335 6.86217 24.561 7.82257 24.561H10.7038C13.9161 24.561 15.3402 23.9016 17.2941 19.6156H17.5259Z" fill="white"/>
<path d="M32.5943 20.9673C32.5943 22.9455 33.1242 23.8027 34.1839 24.1654V24.3632L30.1436 25.4182H30.0112L29.3819 22.385C27.7923 24.0335 25.8053 25.4182 23.752 25.4182C21.2682 25.4182 19.811 23.7038 19.811 20.6376V12.3293C19.811 10.3511 19.2149 9.62581 18.1883 9.26314V9.06532L22.9241 8.63672H23.0565V19.7145C23.0565 21.8575 23.5533 23.473 25.739 23.473C26.8981 23.473 28.2559 22.9785 29.415 22.1542V12.3293C29.415 10.3511 28.8189 9.62581 27.7592 9.26314V9.06532L32.495 8.63672H32.6274V20.9673H32.5943Z" fill="white"/>
<path d="M45.1789 8.80135L44.4503 11.9994H44.2516C43.523 11.373 42.5295 11.0103 41.7678 11.0103C41.1386 11.0103 40.4762 11.2741 39.6814 12.2961V21.8243C39.6814 23.8025 39.7808 24.8246 41.0392 24.8246V25.0224H35.1112V24.8246C36.3697 24.8246 36.469 23.7695 36.469 21.8243V13.0544C36.469 11.0763 35.9392 10.5487 34.9125 10.1531V9.95529L39.5821 8.60354H39.7145V11.9005C41.0061 9.95529 42.3308 8.5376 43.9867 8.5376C44.351 8.57057 44.7484 8.63651 45.1789 8.80135Z" fill="white"/>
<path d="M45.0795 17.044C45.0795 11.9337 48.2919 8.5708 52.7296 8.5708C57.2335 8.5708 60.3134 11.7688 60.3134 16.9451C60.3134 22.0554 57.1011 25.4183 52.6634 25.4183C48.1925 25.4183 45.0795 22.2202 45.0795 17.044ZM56.9024 16.978C56.9024 12.6261 55.5446 8.9994 52.6965 8.9994C49.8484 8.9994 48.5568 12.4282 48.5568 16.978C48.5568 21.33 49.9146 24.9567 52.7627 24.9567C55.5777 24.9896 56.9024 21.5278 56.9024 16.978Z" fill="white"/>
<path d="M77.0708 16.6151C77.0708 21.9232 73.7922 25.418 69.3213 25.418C68.1291 25.418 67.0363 25.1213 66.1421 24.6597V28.8798C66.1421 30.858 66.2414 31.8801 67.4999 31.8801V32.0779H61.5719V31.8801C62.8304 31.8801 62.9297 30.825 62.9297 28.8798V13.0544C62.9297 11.0763 62.3998 10.5487 61.3732 10.1531V9.95529L66.0427 8.60354H66.1752V11.307C67.3012 9.75747 68.8908 8.5376 70.9772 8.5376C74.4876 8.57057 77.0708 11.8346 77.0708 16.6151ZM73.6266 17.6042C73.6266 13.516 72.335 10.1531 69.4207 10.1531C68.096 10.1531 67.0031 10.8784 66.1421 11.8016V20.2088C66.1421 22.9783 67.2681 24.9564 69.4538 24.9564C72.335 24.9894 73.6266 21.4287 73.6266 17.6042Z" fill="white"/>
<path d="M91.6755 21.2641C90.5495 23.2752 88.6287 25.4183 85.2839 25.4183C80.9455 25.4183 78.4948 21.7586 78.4948 17.2418C78.4948 12.2634 81.7734 8.5708 86.0124 8.5708C89.4566 8.5708 91.8411 10.9446 91.6755 14.835H81.8728C81.8397 15.1317 81.8397 15.4944 81.8397 15.7911C81.8397 20.308 83.3962 23.6379 86.8404 23.6379C88.8605 23.6379 90.5164 22.5499 91.5099 21.1322L91.6755 21.2641ZM81.939 14.3405H88.5294C88.7612 11.0765 88.0326 8.9994 85.8469 8.9994C83.5286 8.9994 82.2371 11.4721 81.939 14.3405Z" fill="white"/>
<path d="M106.38 23.1763C105.883 24.1324 104.79 25.4183 103.101 25.4183C101.346 25.4183 100.981 23.9346 100.915 22.8137C99.723 24.3632 97.8684 25.4183 96.1132 25.4183C93.9937 25.4183 92.5034 24.0995 92.5034 22.1543C92.5034 19.9123 94.1924 18.3628 97.9016 17.3407L100.783 16.5494V14.3734C100.783 13.4833 100.783 10.1863 97.736 10.1863C95.6827 10.1863 94.1924 11.604 93.2651 13.3844L93.0664 13.2854C93.6957 11.2413 95.6827 8.5708 99.2263 8.5708C102.339 8.5708 103.962 10.6149 103.962 13.7141V21.4949C103.962 22.7477 103.995 23.7698 104.956 23.7698C105.618 23.7698 106.048 23.3082 106.214 23.0774L106.38 23.1763ZM100.783 22.5499V16.9451L98.9613 17.5715C96.3782 18.4617 95.6165 19.3848 95.6165 21.1981C95.6165 22.8137 96.61 23.8357 97.9347 23.8357C98.9613 23.8357 100.021 23.2093 100.783 22.5499Z" fill="white"/>
<path d="M120.918 21.8575C120.918 23.8357 121.017 24.8578 122.276 24.8578V25.0556H116.348V24.8578C117.606 24.8578 117.706 23.8027 117.706 21.8575V14.2745C117.706 12.1315 117.209 10.516 115.023 10.516C113.897 10.516 112.506 11.0105 111.347 11.8348V21.8246C111.347 23.8027 111.446 24.8248 112.705 24.8248V25.0226H106.777V24.8248C108.035 24.8248 108.135 23.7698 108.135 21.8246V13.0547C108.135 11.0765 107.605 10.549 106.545 10.1533V9.95552L111.215 8.60377H111.347V11.571C112.937 9.95552 114.924 8.5708 116.977 8.5708C119.461 8.5708 120.918 10.2852 120.918 13.3514V21.8575V21.8575Z" fill="white"/>
<path d="M151.287 2.66897H156.486V2.83381C154.896 3.0646 154.035 4.97684 152.909 8.76834L147.809 25.385H147.577L142.411 9.69149L136.682 25.385H136.45L130.588 6.55938C129.794 4.05369 129.065 2.93272 127.773 2.80084V2.60303H135.688V2.83381C133.966 2.96569 133.37 3.95478 133.933 5.76811L138.205 19.6813L142.146 8.80131L141.418 6.59235C140.59 4.08666 139.894 2.96569 138.603 2.83381V2.636H146.518V2.83381C144.796 2.96569 144.133 3.95478 144.729 5.76811L149.101 19.2856L152.346 8.60349C153.439 4.87793 153.439 3.09757 151.32 2.86678V2.66897H151.287Z" fill="white"/>
<path d="M168.243 23.1763C167.746 24.1324 166.653 25.4183 164.964 25.4183C163.209 25.4183 162.845 23.9346 162.778 22.8137C161.586 24.3632 159.732 25.4183 157.976 25.4183C155.857 25.4183 154.367 24.0995 154.367 22.1543C154.367 19.9123 156.055 18.3628 159.765 17.3407L162.646 16.5494V14.3734C162.646 13.4833 162.646 10.1863 159.599 10.1863C157.546 10.1863 156.055 11.604 155.128 13.3844L154.93 13.2854C155.559 11.2413 157.546 8.5708 161.089 8.5708C164.202 8.5708 165.825 10.6149 165.825 13.7141V21.4949C165.825 22.7477 165.858 23.7698 166.819 23.7698C167.481 23.7698 167.912 23.3082 168.077 23.0774L168.243 23.1763ZM162.613 22.5499V16.9451L160.791 17.5715C158.208 18.4617 157.446 19.3848 157.446 21.1981C157.446 22.8137 158.44 23.8357 159.765 23.8357C160.791 23.8357 161.884 23.2093 162.613 22.5499Z" fill="white"/>
<path d="M178.708 22.4508C177.251 24.2971 175.33 25.3851 173.574 25.3851C171.19 25.3851 169.832 24.1322 169.832 21.3298V10.1531H168.243V9.79046L168.673 9.59264C170.461 8.83434 171.72 7.54853 172.879 4.68018H173.078V8.93325H178.476L178.012 10.1531H173.078V21.165C173.078 22.8794 173.873 23.7696 175.396 23.7696C176.522 23.7696 177.681 23.0772 178.542 22.3189L178.708 22.4508Z" fill="white"/>
<path d="M178.41 17.2418C178.41 12.2304 181.688 8.5708 185.927 8.5708C188.113 8.5708 190.1 9.69177 191.193 11.1424L189.703 13.2854H189.504C188.941 10.9116 187.914 8.96643 185.894 8.96643C183.145 8.96643 181.721 12.1975 181.721 15.89C181.721 20.242 183.377 23.572 186.59 23.572C188.676 23.572 190.332 22.385 191.259 21.0333L191.458 21.1652C190.299 23.2093 188.477 25.4183 185.166 25.4183C180.86 25.4183 178.41 21.7586 178.41 17.2418Z" fill="white"/>
<path d="M206.228 21.8573C206.228 23.8355 206.328 24.8575 207.586 24.8575V25.0553H201.658V24.8575C202.916 24.8575 203.016 23.8025 203.016 21.8573V14.2743C203.016 12.1313 202.519 10.5158 200.333 10.5158C199.207 10.5158 197.816 11.0103 196.657 11.8345V21.8243C196.657 23.8025 196.757 24.8246 198.015 24.8246V25.0224H192.087V24.8246C193.346 24.8246 193.445 23.7695 193.445 21.8243V5.17469C193.445 3.19652 192.915 2.66901 191.855 2.27337V2.07556L196.525 0.95459H196.657V11.5378C198.247 9.92231 200.234 8.53759 202.287 8.53759C204.771 8.53759 206.228 10.252 206.228 13.3182V21.8573V21.8573Z" fill="white"/>
<path d="M215.004 13.9114C215.004 7.0208 219.475 2.30615 225.635 2.30615C228.715 2.30615 230.901 3.2293 232.291 3.95463L232.49 8.20771H232.291C230.801 4.77887 228.715 2.73476 225.502 2.73476C221.429 2.73476 218.846 7.48237 218.846 13.8785C218.846 20.2746 221.495 25.0222 225.502 25.0222C228.715 25.0222 231.066 22.8792 232.556 18.9888H232.755L232.192 23.9012C230.768 24.5606 228.615 25.4508 225.635 25.4508C219.475 25.4178 215.004 20.9669 215.004 13.9114Z" fill="white"/>
<path d="M234.014 17.044C234.014 11.9337 237.226 8.5708 241.664 8.5708C246.168 8.5708 249.248 11.7688 249.248 16.9451C249.248 22.0554 246.035 25.4183 241.597 25.4183C237.093 25.4183 234.014 22.2202 234.014 17.044ZM245.803 16.978C245.803 12.6261 244.446 8.9994 241.597 8.9994C238.749 8.9994 237.458 12.4282 237.458 16.978C237.458 21.33 238.816 24.9567 241.664 24.9567C244.512 24.9567 245.803 21.5278 245.803 16.978Z" fill="white"/>
<path d="M273.655 21.8573C273.655 23.8355 273.754 24.8575 275.013 24.8575V25.0554H269.085V24.8575C270.343 24.8575 270.443 23.8025 270.443 21.8573V14.2743C270.443 12.1313 269.946 10.5158 267.76 10.5158C266.601 10.5158 265.21 11.0433 264.283 11.9005C264.382 12.3291 264.415 12.8236 264.415 13.3512V21.8243C264.415 23.8025 264.515 24.8246 265.773 24.8246V25.0224H259.845V24.8246C261.103 24.8246 261.203 23.7695 261.203 21.8243V14.2743C261.203 12.1313 260.706 10.5158 258.52 10.5158C257.394 10.5158 256.07 10.9773 255.142 11.7686V21.8243C255.142 23.8025 255.242 24.8246 256.5 24.8246V25.0224H250.572V24.8246C251.831 24.8246 251.93 23.7695 251.93 21.8243V13.0544C251.93 11.0763 251.4 10.5487 250.373 10.1531V9.95529L255.043 8.60354H255.175V11.4719C256.533 9.88935 258.487 8.5376 260.474 8.5376C262.461 8.5376 263.819 9.65856 264.283 11.6697C265.641 9.98826 267.661 8.5376 269.747 8.5376C272.231 8.5376 273.688 10.252 273.688 13.3182V21.8573H273.655Z" fill="white"/>
<path d="M291.472 16.6151C291.472 21.9232 288.193 25.418 283.723 25.418C282.53 25.418 281.437 25.1213 280.543 24.6597V28.8798C280.543 30.858 280.643 31.8801 281.901 31.8801V32.0779H275.973V31.8801C277.232 31.8801 277.331 30.825 277.331 28.8798V13.0544C277.331 11.0763 276.801 10.5487 275.774 10.1531V9.95529L280.444 8.60354H280.576V11.307C281.702 9.75747 283.292 8.5376 285.378 8.5376C288.856 8.57057 291.472 11.8346 291.472 16.6151ZM287.995 17.6042C287.995 13.516 286.703 10.1531 283.789 10.1531C282.464 10.1531 281.371 10.8784 280.51 11.8016V20.2088C280.51 22.9783 281.636 24.9564 283.822 24.9564C286.703 24.9894 287.995 21.4287 287.995 17.6042Z" fill="white"/>
<path d="M306.209 23.1763C305.712 24.1324 304.62 25.4183 302.931 25.4183C301.175 25.4183 300.811 23.9346 300.745 22.8137C299.553 24.3632 297.698 25.4183 295.943 25.4183C293.823 25.4183 292.333 24.0995 292.333 22.1543C292.333 19.9123 294.022 18.3628 297.731 17.3407L300.612 16.5494V14.3734C300.612 13.4833 300.612 10.1863 297.566 10.1863C295.512 10.1863 294.022 11.604 293.095 13.3844L292.896 13.2854C293.525 11.2413 295.512 8.5708 299.056 8.5708C302.169 8.5708 303.792 10.6149 303.792 13.7141V21.4949C303.792 22.7477 303.825 23.7698 304.785 23.7698C305.448 23.7698 305.878 23.3082 306.044 23.0774L306.209 23.1763ZM300.612 22.5499V16.9451L298.791 17.5715C296.208 18.4617 295.446 19.3848 295.446 21.1981C295.446 22.8137 296.44 23.8357 297.764 23.8357C298.791 23.8357 299.851 23.2093 300.612 22.5499Z" fill="white"/>
<path d="M320.748 21.8575C320.748 23.8357 320.847 24.8578 322.105 24.8578V25.0556H316.177V24.8578C317.436 24.8578 317.535 23.8027 317.535 21.8575V14.2745C317.535 12.1315 317.039 10.516 314.853 10.516C313.727 10.516 312.369 11.0105 311.177 11.8348V21.8246C311.177 23.8027 311.276 24.8248 312.535 24.8248V25.0226H306.607V24.8248C307.865 24.8248 307.964 23.7698 307.964 21.8246V13.0547C307.964 11.0765 307.435 10.549 306.408 10.1533V9.95552L311.077 8.60377H311.21V11.571C312.8 9.95552 314.787 8.5708 316.84 8.5708C319.324 8.5708 320.781 10.2852 320.781 13.3514V21.8575H320.748Z" fill="white"/>
<path d="M332.14 8.93311H336.512V9.13092C335.452 9.32874 334.723 10.6805 333.498 13.9115L328.298 27.5939C327.073 30.8249 325.417 32.2426 323.496 32.2426C322.933 32.2426 322.437 32.1767 321.907 32.0118L322.205 29.3742H322.404C324.523 31.3524 326.543 30.8579 327.735 27.6928L328.729 25.0552L323.927 12.5927C323.066 10.3508 322.569 9.29577 321.509 9.13092V8.93311H327.868V9.13092C326.477 9.2628 326.444 10.2849 327.007 11.7685L330.352 20.6703L332.968 13.7137C334.127 10.6475 333.498 9.29577 332.14 9.09795V8.93311V8.93311Z" fill="white"/>
<path d="M74.7527 37.5178H73.0968L73.1299 36.7925H77.1702L77.2033 37.5178H75.5475V41.1115H74.7527V37.5178V37.5178Z" fill="white"/>
<path d="M78.8592 36.7925H81.1111C82.204 36.7925 82.7339 37.32 82.7339 38.2431C82.7339 38.9355 82.4027 39.43 81.7404 39.5949L82.8995 41.0785H81.9722L80.9787 39.7268H79.6871V41.0785H78.8592V36.7925ZM81.1111 39.0674C81.7072 39.0674 81.9391 38.7377 81.9391 38.2761C81.9391 37.8475 81.7072 37.5178 81.1111 37.5178H79.654V39.0674H81.1111Z" fill="white"/>
<path d="M84.5554 39.463V36.8254H85.3502V39.43C85.3502 40.2213 85.9132 40.4851 86.6087 40.4851C87.3041 40.4851 87.8671 40.2213 87.8671 39.43V36.7925H88.6619V39.43C88.6619 40.7159 87.7678 41.2104 86.6087 41.2104C85.4495 41.2104 84.5554 40.7488 84.5554 39.463Z" fill="white"/>
<path d="M90.4502 40.7488V39.9576C91.0463 40.2873 91.7749 40.5181 92.4041 40.5181C93.0665 40.5181 93.4308 40.2873 93.4308 39.9246C93.4308 39.5619 93.1658 39.463 92.1392 39.2652C91.2781 39.1004 90.5164 38.8696 90.5164 38.0783C90.5164 37.353 91.1125 36.7266 92.4041 36.7266C92.9671 36.7266 93.5632 36.8584 94.0269 37.1552V37.9464C93.5301 37.6167 92.9009 37.4519 92.3379 37.4519C91.6755 37.4519 91.3444 37.6827 91.3444 38.0124C91.3444 38.408 91.8411 38.474 92.6359 38.6388C93.497 38.8036 94.2918 39.0344 94.2918 39.8916C94.2918 40.4521 93.9275 41.2434 92.4372 41.2434C91.5762 41.2104 90.947 41.0126 90.4502 40.7488Z" fill="white"/>
<path d="M97.173 37.5178H95.5172L95.5503 36.7925H99.5906L99.6237 37.5178H97.9679V41.1115H97.173V37.5178V37.5178Z" fill="white"/>
<path d="M101.313 36.7925H104.856L104.889 37.5178H102.108V38.5399H104.393V39.2322H102.108V40.3862H104.989L104.956 41.1115H101.313V36.7925Z" fill="white"/>
<path d="M106.81 36.7925H108.863C110.221 36.7925 111.049 37.5838 111.049 38.9355C111.049 40.2873 110.254 41.1115 108.863 41.1115H106.81V36.7925ZM108.863 40.3862C109.758 40.3862 110.221 39.9246 110.221 38.9355C110.221 37.9464 109.725 37.4848 108.863 37.4848H107.605V40.3532H108.863V40.3862Z" fill="white"/>
<path d="M115.321 36.7925H117.739C118.633 36.7925 119.163 37.1551 119.163 37.8805C119.163 38.375 118.931 38.7377 118.368 38.8696C118.964 39.0674 119.229 39.3641 119.229 39.8916C119.229 40.7488 118.6 41.0785 117.606 41.0785H115.321V36.7925V36.7925ZM117.606 38.6058C118.103 38.6058 118.335 38.441 118.335 38.0453C118.335 37.6827 118.103 37.4848 117.64 37.4848H116.083V38.5728H117.606V38.6058ZM117.64 40.4191C118.203 40.4191 118.434 40.2213 118.434 39.8257C118.434 39.463 118.203 39.2322 117.64 39.2322H116.05V40.4191H117.64Z" fill="white"/>
<path d="M122.408 39.6279L120.454 36.7925H121.382L122.773 38.8696H122.839L124.263 36.7925H125.157L123.203 39.5949V41.0785H122.408V39.6279V39.6279Z" fill="white"/>
<path d="M128.8 36.7925H129.628L130.588 40.3202H130.721L131.913 36.7925H132.708L133.867 40.3202H133.999L134.927 36.7925H135.755L134.529 41.1115H133.37L132.31 37.9134H132.277L131.218 41.1115H130.059L128.8 36.7925Z" fill="white"/>
<path d="M138.57 36.7925H139.861L141.583 41.1115H140.755L140.325 40.0235H138.106L137.675 41.1115H136.848L138.57 36.7925ZM138.371 39.3311H140.027L139.331 37.5508H139.1L138.371 39.3311Z" fill="white"/>
<path d="M144.034 37.5178H142.378L142.411 36.7925H146.418L146.452 37.5178H144.796V41.1115H144.001V37.5178H144.034Z" fill="white"/>
<path d="M147.71 38.9683C147.71 37.7484 148.571 36.6934 150.128 36.6934C150.823 36.6934 151.386 36.9571 151.75 37.2209V38.0121C151.287 37.6824 150.823 37.3857 150.128 37.3857C149.134 37.3857 148.538 38.0451 148.538 38.9353C148.538 39.7925 149.101 40.4519 150.128 40.4519C150.823 40.4519 151.32 40.1881 151.75 39.8584V40.6497C151.419 40.8805 150.823 41.1443 150.061 41.1443C148.439 41.2102 147.71 40.1881 147.71 38.9683Z" fill="white"/>
<path d="M153.605 36.7925H154.4V38.5069H156.884V36.7925H157.678V41.1115H156.884V39.2322H154.4V41.1115H153.605V36.7925Z" fill="white"/>
<path d="M162.215 36.7925H165.759L165.792 37.5178H163.01V38.5399H165.295V39.2322H163.01V40.3862H165.891L165.858 41.1115H162.215V36.7925V36.7925Z" fill="white"/>
<path d="M167.713 36.7925H168.607L170.991 39.9246H171.025V36.7925H171.786V41.1115H170.925L168.508 37.9134H168.475V41.1115H167.713V36.7925V36.7925Z" fill="white"/>
<path d="M175.131 37.5178H173.475L173.508 36.7925H177.549L177.582 37.5178H175.926V41.1115H175.131V37.5178Z" fill="white"/>
<path d="M179.238 36.7925H180.032V38.5069H182.516V36.7925H183.311V41.1115H182.516V39.2322H180.032V41.1115H179.238V36.7925Z" fill="white"/>
<path d="M185.364 39.463V36.8254H186.159V39.43C186.159 40.2213 186.722 40.4851 187.418 40.4851C188.08 40.4851 188.676 40.2213 188.676 39.43V36.7925H189.471V39.43C189.471 40.7159 188.577 41.2104 187.418 41.2104C186.225 41.2104 185.364 40.7488 185.364 39.463Z" fill="white"/>
<path d="M191.292 40.7488V39.9576C191.888 40.2873 192.617 40.5181 193.246 40.5181C193.909 40.5181 194.273 40.2873 194.273 39.9246C194.273 39.5619 194.008 39.463 192.981 39.2652C192.12 39.1004 191.359 38.8696 191.359 38.0783C191.359 37.353 191.955 36.7266 193.246 36.7266C193.809 36.7266 194.405 36.8584 194.869 37.1552V37.9464C194.372 37.6167 193.743 37.4519 193.18 37.4519C192.518 37.4519 192.186 37.6827 192.186 38.0124C192.186 38.408 192.683 38.474 193.478 38.6388C194.339 38.8036 195.134 39.0344 195.134 39.8916C195.134 40.4521 194.77 41.2434 193.279 41.2434C192.418 41.2104 191.789 41.0126 191.292 40.7488Z" fill="white"/>
<path d="M196.823 36.7925H197.618V41.1115H196.823V36.7925Z" fill="white"/>
<path d="M201.029 36.7925H202.32L204.043 41.1115H203.215L202.784 40.0235H200.565L200.135 41.1115H199.307L201.029 36.7925ZM200.83 39.3311H202.486L201.791 37.5508H201.559L200.83 39.3311Z" fill="white"/>
<path d="M205.433 40.7488V39.9576C206.03 40.2873 206.758 40.5181 207.387 40.5181C208.05 40.5181 208.414 40.2873 208.414 39.9246C208.414 39.5619 208.149 39.463 207.122 39.2652C206.261 39.1004 205.5 38.8696 205.5 38.0783C205.5 37.353 206.096 36.7266 207.387 36.7266C207.95 36.7266 208.546 36.8584 209.01 37.1552V37.9464C208.513 37.6167 207.884 37.4519 207.321 37.4519C206.659 37.4519 206.328 37.6827 206.328 38.0124C206.328 38.408 206.824 38.474 207.619 38.6388C208.48 38.8036 209.275 39.0344 209.275 39.8916C209.275 40.4521 208.911 41.2434 207.421 41.2434C206.593 41.2104 205.963 41.0126 205.433 40.7488Z" fill="white"/>
<path d="M212.156 37.5178H210.5L210.533 36.7925H214.574L214.607 37.5178H212.951V41.1115H212.156V37.5178V37.5178Z" fill="white"/>
<path d="M215.965 40.7488V39.9576C216.561 40.2873 217.289 40.5181 217.919 40.5181C218.581 40.5181 218.945 40.2873 218.945 39.9246C218.945 39.5619 218.68 39.463 217.654 39.2652C216.793 39.1004 216.031 38.8696 216.031 38.0783C216.031 37.353 216.627 36.7266 217.919 36.7266C218.482 36.7266 219.078 36.8584 219.541 37.1552V37.9464C219.045 37.6167 218.415 37.4519 217.852 37.4519C217.19 37.4519 216.859 37.6827 216.859 38.0124C216.859 38.408 217.356 38.474 218.15 38.6388C219.011 38.8036 219.806 39.0344 219.806 39.8916C219.806 40.4521 219.442 41.2434 217.952 41.2434C217.091 41.2104 216.461 41.0126 215.965 40.7488Z" fill="white"/>
<path d="M223.747 40.7488V39.9576C224.343 40.2873 225.072 40.5181 225.701 40.5181C226.364 40.5181 226.728 40.2873 226.728 39.9246C226.728 39.5619 226.463 39.463 225.436 39.2652C224.575 39.1004 223.813 38.8696 223.813 38.0783C223.813 37.353 224.41 36.7266 225.701 36.7266C226.264 36.7266 226.86 36.8584 227.324 37.1552V37.9464C226.827 37.6167 226.198 37.4519 225.635 37.4519C224.973 37.4519 224.641 37.6827 224.641 38.0124C224.641 38.408 225.138 38.474 225.933 38.6388C226.794 38.8036 227.589 39.0344 227.589 39.8916C227.589 40.4521 227.225 41.2434 225.734 41.2434C224.873 41.2104 224.244 41.0126 223.747 40.7488Z" fill="white"/>
<path d="M229.311 36.7925H230.106V41.1115H229.311V36.7925Z" fill="white"/>
<path d="M232.225 36.7925H233.119L235.504 39.9246H235.537V36.7925H236.299V41.1115H235.438L233.02 37.9134H232.987V41.1115H232.225V36.7925V36.7925Z" fill="white"/>
<path d="M238.12 38.9683C238.12 37.7484 238.981 36.6934 240.538 36.6934C241.233 36.6934 241.796 36.9571 242.16 37.2209V38.0121C241.697 37.6824 241.233 37.3857 240.538 37.3857C239.544 37.3857 238.948 38.0451 238.948 38.9353C238.948 39.7925 239.511 40.4519 240.538 40.4519C241.233 40.4519 241.73 40.1881 242.16 39.8584V40.6497C241.829 40.8805 241.233 41.1443 240.472 41.1443C238.849 41.2102 238.12 40.1881 238.12 38.9683Z" fill="white"/>
<path d="M244.015 36.7925H247.559L247.592 37.5178H244.81V38.5399H247.095V39.2322H244.81V40.3862H247.691L247.658 41.1115H244.015V36.7925V36.7925Z" fill="white"/>
<path d="M252.46 37.4846H251.599L251.698 36.8252H253.222V41.1442H252.46V37.4846Z" fill="white"/>
<path d="M258.852 38.8364C258.852 40.4189 257.858 41.2102 256.666 41.2102C256.268 41.2102 255.805 41.1113 255.374 40.9135V40.2211C255.871 40.4519 256.169 40.5508 256.633 40.5508C257.394 40.5508 258.024 40.1552 258.057 39.1661C257.659 39.4628 257.163 39.5947 256.699 39.5947C255.772 39.5947 255.109 39.1661 255.109 38.2759C255.109 37.2868 255.937 36.6934 256.931 36.6934C258.09 36.6934 258.852 37.4187 258.852 38.8364ZM256.931 38.9683C257.328 38.9683 257.726 38.8364 258.123 38.5726C258.09 37.7154 257.56 37.3528 256.931 37.3528C256.401 37.3528 255.937 37.6495 255.937 38.21C255.904 38.8034 256.401 38.9683 256.931 38.9683Z" fill="white"/>
<path d="M263.985 38.8364C263.985 40.4189 262.991 41.2102 261.799 41.2102C261.402 41.2102 260.938 41.1113 260.507 40.9135V40.2211C261.004 40.4519 261.302 40.5508 261.766 40.5508C262.528 40.5508 263.157 40.1552 263.19 39.1661C262.792 39.4628 262.296 39.5947 261.832 39.5947C260.905 39.5947 260.242 39.1661 260.242 38.2759C260.242 37.2868 261.07 36.6934 262.064 36.6934C263.19 36.6934 263.985 37.4187 263.985 38.8364ZM262.064 38.9683C262.461 38.9683 262.859 38.8364 263.256 38.5726C263.223 37.7154 262.693 37.3528 262.064 37.3528C261.534 37.3528 261.07 37.6495 261.07 38.21C261.037 38.8034 261.534 38.9683 262.064 38.9683Z" fill="white"/>
<path d="M265.409 40.8805V40.1551C265.972 40.4189 266.634 40.5508 267.032 40.5508C267.661 40.5508 268.091 40.287 268.091 39.8584C268.091 39.3968 267.595 39.166 266.502 39.166H266.303V38.7704L267.76 37.5176H265.475L265.508 36.8252H268.787V37.4516L267.33 38.6715C268.29 38.7704 268.919 39.1001 268.919 39.8584C268.919 40.7156 268.124 41.2431 267.065 41.2431C266.469 41.2101 265.906 41.0783 265.409 40.8805Z" fill="white"/>
</svg>
