<svg width="153" height="48" viewBox="0 0 153 48" fill="none" xmlns="http://www.w3.org/2000/svg">
<path fill-rule="evenodd" clip-rule="evenodd" d="M8.53333 0C3.8205 0 0 3.8205 0 8.53333V39.4667C0 44.1795 3.8205 48 8.53333 48H39.4667C44.1795 48 48 44.1795 48 39.4667V8.53333C48 3.8205 44.1795 0 39.4667 0H8.53333ZM21.7656 9.10737L20.2057 14.9289L18.2559 22.2058L18.22 22.3398C18.0675 22.9089 18.4052 23.4938 18.9742 23.6462L26.4137 25.6396C27.4932 25.9289 28.1588 26.9453 27.9004 27.9098C27.6419 28.8744 26.5573 29.4218 25.4778 29.1326L17.6595 27.0377C17.2997 26.9412 16.9381 27.1237 16.852 27.4452C16.7658 27.7667 16.9877 28.1055 17.3475 28.202C19.3716 28.7443 20.6195 30.65 20.1349 32.4586C20.0488 32.7801 20.2706 33.1189 20.6305 33.2153C20.9903 33.3117 21.3518 33.1292 21.438 32.8077C21.7854 31.5113 21.476 30.178 20.7015 29.1007L25.1658 30.2969C26.9104 30.7643 28.6629 29.9207 29.1604 28.4034L29.1914 28.4118C29.199 28.3123 29.2158 28.2126 29.2424 28.1134L29.9834 25.3482L31.9332 18.0713L33.4931 12.2497C33.7515 11.2852 34.8361 10.7378 35.9156 11.027C36.9951 11.3162 37.6607 12.3326 37.4022 13.2972L33.9315 26.2501L33.9255 26.2725C32.7404 30.6915 31.4084 34.4891 29.2876 36.8847C28.2381 38.0702 27.0119 38.8921 25.531 39.2844C24.0487 39.677 22.2512 39.6551 20.0249 39.0586C17.7987 38.4621 16.231 37.5823 15.1436 36.5011C14.0573 35.4209 13.4063 34.0961 13.0901 32.5446C12.4505 29.4056 13.1984 25.4448 14.3842 21.0184L14.3857 21.0128L17.8564 8.05991C18.1149 7.09537 19.1995 6.54793 20.279 6.83718C21.3585 7.12642 22.024 8.14282 21.7656 9.10737ZM35.1955 26.7448C34.0216 31.1012 32.6445 35.0867 30.3507 37.6777C29.1784 39.002 27.7506 39.9818 25.9723 40.4528C24.1955 40.9235 22.1288 40.8702 19.713 40.2229C17.2971 39.5756 15.4807 38.5883 14.1772 37.2923C12.8727 35.9953 12.1261 34.4328 11.773 32.6998C11.082 29.3091 11.8821 25.1689 13.0437 20.8092L13.082 20.666L13.0827 20.6637L16.5534 7.71076C16.9841 6.10318 18.7918 5.19079 20.591 5.67287C22.3901 6.15495 23.4994 7.84894 23.0687 9.45652L22.1328 12.9492C22.7752 12.7297 23.5099 12.6945 24.2433 12.891C25.3089 13.1766 26.1326 13.8873 26.5375 14.7533C27.3212 14.2058 28.3899 14.0021 29.4555 14.2876C30.1889 14.4841 30.8076 14.882 31.2542 15.3933L32.19 11.9006C32.6208 10.293 34.4285 9.38061 36.2276 9.86269C38.0267 10.3448 39.136 12.0388 38.7053 13.6463L35.2346 26.5993L35.2284 26.6221L35.1955 26.7448ZM30.6301 17.7221C30.8886 16.7576 30.223 15.7412 29.1435 15.4519C28.0646 15.1628 26.9806 15.7095 26.7214 16.6731L26.721 16.6747L24.7711 23.9516L26.7257 24.4753C27.4591 24.6718 28.0778 25.0697 28.5244 25.581L28.6803 24.9991L30.6301 17.7221ZM25.4179 16.3255L23.4681 23.6025L19.5589 22.555L21.5088 15.2781C21.7672 14.3135 22.8518 13.7661 23.9313 14.0553C25.0102 14.3444 25.6757 15.3599 25.4184 16.3239L25.4179 16.3255Z" fill="white"/>
<path d="M74.4 17.504V12.576H60.8V34.976H65.92V26.752H74.24V21.824H65.92V17.504H74.4Z" fill="white"/>
<path d="M88.8811 18.976V20.48C87.8251 19.264 86.2571 18.528 84.1131 18.528C79.9211 18.528 76.465 22.208 76.465 26.976C76.465 31.744 79.9211 35.424 84.1131 35.424C86.2571 35.424 87.8251 34.688 88.8811 33.472V34.976H93.6811V18.976H88.8811ZM85.0731 30.88C82.8651 30.88 81.2651 29.376 81.2651 26.976C81.2651 24.576 82.8651 23.072 85.0731 23.072C87.2811 23.072 88.8811 24.576 88.8811 26.976C88.8811 29.376 87.2811 30.88 85.0731 30.88Z" fill="white"/>
<path d="M106.579 18.528C104.467 18.528 102.867 19.296 102.003 20.48V18.976H97.2026V34.976H102.003V26.24C102.003 23.968 103.219 22.944 104.979 22.944C106.515 22.944 107.763 23.872 107.763 25.856V34.976H112.563V25.152C112.563 20.832 109.811 18.528 106.579 18.528Z" fill="white"/>
<path d="M133.619 34.976L126.931 23.488L133.299 12.576H127.475L124.019 18.496L120.563 12.576H114.739L121.107 23.488L114.419 34.976H120.243L124.019 28.512L127.795 34.976H133.619Z" fill="white"/>
<path d="M144.343 12.576H135.863V34.976H140.983V27.936H144.343C148.759 27.936 152.183 24.512 152.183 20.256C152.183 16 148.759 12.576 144.343 12.576ZM144.343 23.136H140.983V17.376H144.343C145.911 17.376 147.063 18.624 147.063 20.256C147.063 21.888 145.911 23.136 144.343 23.136Z" fill="white"/>
</svg>
