<svg width="191" height="60" viewBox="0 0 191 60" fill="none" xmlns="http://www.w3.org/2000/svg">
<path d="M0.313232 10.6667C0.313232 4.77563 5.08886 0 10.9799 0H49.6466C55.5376 0 60.3132 4.77563 60.3132 10.6667V49.3333C60.3132 55.2244 55.5376 60 49.6466 60H10.9799C5.08886 60 0.313232 55.2244 0.313232 49.3333V10.6667Z" fill="white"/>
<path fill-rule="evenodd" clip-rule="evenodd" d="M25.5704 18.6612L27.5202 11.3842C27.8433 10.1785 27.0113 8.90804 25.662 8.54649C24.3126 8.18493 22.9569 8.86922 22.6338 10.0749L18.2954 26.2661L18.2935 26.2731C16.8113 31.806 15.8763 36.757 16.6759 40.6808C17.0711 42.6201 17.8849 44.2762 19.2428 45.6264C20.602 46.9778 22.5616 48.0776 25.3444 48.8232C28.1272 49.5689 30.3741 49.5963 32.227 49.1055C34.0781 48.6152 35.6109 47.5878 36.9228 46.1059C39.5738 43.1114 41.2387 38.3644 42.7201 32.8406L42.7276 32.8127L47.066 16.6215C47.3891 15.4158 46.5571 14.1453 45.2078 13.7838C43.8584 13.4222 42.5026 14.1065 42.1796 15.3122L40.2297 22.5891L37.7924 31.6853L36.8663 35.1418C36.833 35.2658 36.812 35.3904 36.8025 35.5147L36.7638 35.5043C36.1419 37.4009 33.9512 38.4554 31.7705 37.8711L26.1901 36.3758C27.1582 37.7225 27.5449 39.3891 27.1107 41.0097C27.003 41.4116 26.5511 41.6397 26.1013 41.5191C25.6515 41.3986 25.3742 40.9751 25.4819 40.5732C26.0876 38.3126 24.5277 35.9304 21.9976 35.2525C21.5479 35.1319 21.2705 34.7084 21.3782 34.3066C21.4859 33.9047 21.9378 33.6766 22.3876 33.7971L32.1605 36.4157C33.5099 36.7773 34.8656 36.093 35.1887 34.8873C35.5117 33.6816 34.6798 32.4111 33.3304 32.0496L24.031 29.5578C23.3197 29.3672 22.8976 28.6361 23.0882 27.9248L23.1331 27.7573L25.5704 18.6612ZM38.2516 47.0972C41.1189 43.8584 42.8402 38.8765 44.3076 33.431L44.3488 33.2776L44.3564 33.2491L48.6948 17.0579C49.2333 15.0485 47.8467 12.931 45.5977 12.3284C43.3488 11.7258 41.0892 12.8663 40.5508 14.8757L39.3809 19.2416C38.8228 18.6025 38.0493 18.1052 37.1326 17.8595C35.8006 17.5026 34.4648 17.7572 33.4851 18.4417C32.9789 17.3591 31.9494 16.4707 30.6174 16.1138C29.7007 15.8682 28.7822 15.9121 27.9792 16.1866L29.1491 11.8207C29.6875 9.8112 28.3009 7.6937 26.0519 7.0911C23.803 6.4885 21.5434 7.629 21.005 9.63847L16.6666 25.8296L16.6658 25.8325L16.6178 26.0116C15.1659 31.4612 14.1657 36.6363 15.0295 40.8748C15.4709 43.0411 16.4042 44.9941 18.0348 46.6154C19.6641 48.2354 21.9346 49.4695 24.9544 50.2786C27.9743 51.0878 30.5576 51.1543 32.7786 50.566C35.0014 49.9772 36.7862 48.7525 38.2516 47.0972ZM36.7427 19.3149C38.092 19.6765 38.924 20.947 38.6009 22.1527L36.1636 31.2488L35.9687 31.9763C35.4105 31.3371 34.6371 30.8398 33.7204 30.5942L31.2772 29.9395L33.7145 20.8434L33.715 20.8414C34.039 19.6369 35.394 18.9536 36.7427 19.3149ZM29.6483 29.5031L32.0857 20.4069L32.0862 20.4049C32.4078 19.1999 31.576 17.9305 30.2274 17.5692C28.878 17.2076 27.5223 17.8919 27.1992 19.0976L24.7619 28.1938L29.6483 29.5031Z" fill="#FF5200"/>
<path d="M93.3132 21.8802V15.7202H76.3132V43.7202H82.7132V33.4402H93.1132V27.2802H82.7132V21.8802H93.3132Z" fill="white"/>
<path d="M111.414 23.7202V25.6002C110.094 24.0802 108.134 23.1602 105.454 23.1602C100.214 23.1602 95.8945 27.7602 95.8945 33.7202C95.8945 39.6802 100.214 44.2802 105.454 44.2802C108.134 44.2802 110.094 43.3602 111.414 41.8402V43.7202H117.414V23.7202H111.414ZM106.654 38.6002C103.894 38.6002 101.894 36.7202 101.894 33.7202C101.894 30.7202 103.894 28.8402 106.654 28.8402C109.414 28.8402 111.414 30.7202 111.414 33.7202C111.414 36.7202 109.414 38.6002 106.654 38.6002Z" fill="white"/>
<path d="M133.536 23.1602C130.896 23.1602 128.896 24.1202 127.816 25.6002V23.7202H121.816V43.7202H127.816V32.8002C127.816 29.9602 129.336 28.6802 131.536 28.6802C133.456 28.6802 135.016 29.8402 135.016 32.3202V43.7202H141.016V31.4402C141.016 26.0402 137.576 23.1602 133.536 23.1602Z" fill="white"/>
<path d="M167.337 43.7202L158.977 29.3602L166.937 15.7202H159.657L155.337 23.1202L151.017 15.7202H143.737L151.697 29.3602L143.337 43.7202H150.617L155.337 35.6402L160.057 43.7202H167.337Z" fill="white"/>
<path d="M180.741 15.7202H170.141V43.7202H176.541V34.9202H180.741C186.261 34.9202 190.541 30.6402 190.541 25.3202C190.541 20.0002 186.261 15.7202 180.741 15.7202ZM180.741 28.9202H176.541V21.7202H180.741C182.701 21.7202 184.141 23.2802 184.141 25.3202C184.141 27.3602 182.701 28.9202 180.741 28.9202Z" fill="white"/>
</svg>
