<svg width="252" height="84" viewBox="0 0 252 84" fill="none" xmlns="http://www.w3.org/2000/svg">
<path d="M0 0H85.9733V84H0V0Z" fill="#332A26"/>
<mask id="mask0_97_1038" style="mask-type:alpha" maskUnits="userSpaceOnUse" x="0" y="0" width="86" height="84">
<path d="M0 12C0 5.37258 5.37258 0 12 0H73.9732C80.6007 0 85.9733 5.37258 85.9733 12V72C85.9733 78.6274 80.6007 84 73.9733 84H12C5.3726 84 0 78.6274 0 72V12Z" fill="#0A0A0A"/>
</mask>
<g mask="url(#mask0_97_1038)">
<path d="M47.0385 37.7393L17.7978 37.6672L17.724 66.2368L46.9647 66.3089L47.0385 37.7393Z" fill="#332A26"/>
<path d="M52.2108 32.708L22.9701 32.6359L22.8963 61.2055L52.137 61.2776L52.2108 32.708Z" fill="white"/>
<path d="M58.4973 26.5994L29.2566 26.5273L29.1828 55.0969L58.4235 55.169L58.4973 26.5994Z" fill="#332A26"/>
<path d="M64.7838 20.4897L35.5431 20.4177L35.4693 48.9873L64.71 49.0594L64.7838 20.4897Z" fill="#FF5200"/>
</g>
<path d="M126.872 19.3919C124.554 19.3919 122.758 20.1934 121.499 21.7964C120.471 20.1934 118.874 19.3919 116.709 19.3919C114.76 19.3919 113.179 20.178 111.981 21.7348V19.8389H107.836V35.8073H111.981V27.7923C111.981 26.3588 112.273 25.2491 112.856 24.463C113.44 23.6769 114.284 23.2761 115.405 23.2761C117.385 23.2761 118.383 24.5863 118.383 27.1912V35.8073H122.574V27.669C122.574 26.2664 122.865 25.1874 123.449 24.4167C124.032 23.6461 124.861 23.2607 125.951 23.2607C127.977 23.2607 128.99 24.5709 128.99 27.1757V35.7919H133.151V26.2972C133.151 24.1085 132.583 22.413 131.447 21.1953C130.311 19.9777 128.776 19.3765 126.857 19.3765L126.872 19.3919Z" fill="#332A26"/>
<path d="M143.973 36.2543C146.153 36.2543 147.857 35.4528 149.085 33.8498V35.8073H153.276V19.8389H149.085V21.7656C147.857 20.178 146.153 19.3919 143.973 19.3919C141.747 19.3919 139.875 20.1934 138.37 21.7964C136.866 23.3994 136.113 25.4186 136.113 27.8385C136.113 30.2276 136.866 32.2314 138.37 33.8498C139.875 35.4682 141.732 36.2697 143.958 36.2697L143.973 36.2543ZM144.679 32.5396C143.375 32.5396 142.3 32.0926 141.456 31.2141C140.611 30.3355 140.197 29.1949 140.197 27.8077C140.197 26.4359 140.611 25.3107 141.456 24.4321C142.3 23.5536 143.375 23.122 144.679 23.122C145.954 23.122 147.028 23.569 147.903 24.4476C148.778 25.3261 149.208 26.4359 149.208 27.7769C149.208 29.1487 148.778 30.2739 147.903 31.1678C147.028 32.0618 145.954 32.5088 144.679 32.5088V32.5396Z" fill="#332A26"/>
<path d="M161.489 22.1972V19.8389H157.344V35.8073H161.489V28.8558C161.489 26.7596 161.934 25.2799 162.809 24.4167C163.684 23.5536 164.989 23.2607 166.724 23.5382V19.6232C164.268 19.2841 162.518 20.1472 161.474 22.2126L161.489 22.1972Z" fill="#332A26"/>
<path d="M180.064 35.8073H184.792L178.053 26.7133L184.163 19.8389H179.312L173.586 26.4359V12.7642H169.441V35.8073H173.586V31.7381L175.443 29.6573L180.064 35.8073Z" fill="#332A26"/>
<path d="M196.244 19.3919C194.11 19.3919 192.406 20.2089 191.132 21.8581V12.7642H186.987V35.8073H191.132V27.9156C191.132 26.513 191.485 25.3878 192.192 24.54C192.898 23.6923 193.819 23.2761 194.97 23.2761C196.091 23.2761 196.935 23.6306 197.503 24.3397C198.071 25.0487 198.363 26.0197 198.363 27.2682V35.8227H202.523V26.4821C202.523 24.2934 201.986 22.5671 200.911 21.3032C199.836 20.0393 198.286 19.4074 196.244 19.4074V19.3919Z" fill="#332A26"/>
<path d="M213.33 36.2543C215.51 36.2543 217.214 35.4528 218.442 33.8498V35.8073H222.633V19.8389H218.442V21.7656C217.214 20.178 215.51 19.3919 213.33 19.3919C211.104 19.3919 209.231 20.1934 207.727 21.7964C206.223 23.3994 205.47 25.4186 205.47 27.8385C205.47 30.2276 206.223 32.2314 207.727 33.8498C209.231 35.4682 211.089 36.2697 213.315 36.2697L213.33 36.2543ZM214.036 32.5396C212.732 32.5396 211.657 32.0926 210.813 31.2141C209.968 30.3355 209.554 29.1949 209.554 27.8077C209.554 26.4359 209.968 25.3107 210.813 24.4321C211.657 23.5536 212.732 23.122 214.036 23.122C215.311 23.122 216.385 23.569 217.26 24.4476C218.135 25.3261 218.565 26.4359 218.565 27.7769C218.565 29.1487 218.135 30.2739 217.26 31.1678C216.385 32.0618 215.311 32.5088 214.036 32.5088V32.5396Z" fill="#332A26"/>
<path d="M245.721 19.3919C243.403 19.3919 241.607 20.1934 240.348 21.7964C239.32 20.1934 237.723 19.3919 235.559 19.3919C233.609 19.3919 232.028 20.178 230.831 21.7348V19.8389H226.686V35.8073H230.831V27.7923C230.831 26.3588 231.122 25.2491 231.706 24.463C232.289 23.6769 233.133 23.2761 234.254 23.2761C236.234 23.2761 237.232 24.5863 237.232 27.1912V35.8073H241.423V27.669C241.423 26.2664 241.715 25.1874 242.298 24.4167C242.881 23.6461 243.71 23.2607 244.8 23.2607C246.827 23.2607 247.84 24.5709 247.84 27.1757V35.7919H252V26.2972C252 24.1085 251.432 22.413 250.296 21.1953C249.16 19.9777 247.625 19.3765 245.706 19.3765L245.721 19.3919Z" fill="#332A26"/>
<path d="M114.115 66.0828C116.126 66.0828 117.769 65.5895 119.058 64.6031C120.348 63.6166 120.992 62.3681 120.992 60.8576C120.992 59.5474 120.609 58.5764 119.826 57.929C119.043 57.2817 117.938 56.7422 116.51 56.326L112.549 55.1854C111.674 54.9234 111.229 54.5072 111.229 53.9215C111.229 53.5362 111.444 53.1971 111.889 52.9042C112.334 52.6114 112.872 52.4727 113.501 52.4727C115.067 52.4727 116.203 53.0892 116.894 54.3377L120.578 53.2588C120.071 52.0411 119.181 51.07 117.922 50.3302C116.663 49.5903 115.19 49.2204 113.516 49.2204C111.751 49.2204 110.247 49.6828 109.003 50.6231C107.76 51.5633 107.13 52.6885 107.13 54.014C107.13 56.0948 108.435 57.5129 111.06 58.2681L115.113 59.4704C116.295 59.8249 116.878 60.3489 116.878 61.0425C116.878 61.505 116.633 61.8903 116.141 62.214C115.65 62.5377 115.021 62.6918 114.238 62.6918C113.209 62.6918 112.334 62.4452 111.598 61.9519C110.861 61.4587 110.354 60.8268 110.078 60.0407L106.332 61.135C106.747 62.476 107.668 63.632 109.095 64.6031C110.523 65.5741 112.181 66.0673 114.069 66.0673L114.115 66.0828Z" fill="#332A26"/>
<path d="M135.975 49.6674V51.5941C134.747 50.0065 133.043 49.2204 130.863 49.2204C128.637 49.2204 126.765 50.0219 125.26 51.6249C123.756 53.2279 123.003 55.2471 123.003 57.667C123.003 60.0561 123.756 62.0598 125.26 63.6782C126.765 65.2967 128.622 66.0982 130.848 66.0982C133.013 66.0982 134.716 65.2967 135.96 63.6937V72.279H140.151V49.6828L135.975 49.6674ZM131.569 62.3681C130.265 62.3681 129.19 61.9211 128.346 61.0425C127.501 60.164 127.087 59.0234 127.087 57.6362C127.087 56.2644 127.501 55.1392 128.346 54.2606C129.19 53.3821 130.265 52.9505 131.569 52.9505C132.844 52.9505 133.918 53.3975 134.793 54.276C135.668 55.1546 136.098 56.2644 136.098 57.6053C136.098 58.9771 135.668 60.1023 134.793 60.9963C133.918 61.8903 132.844 62.3373 131.569 62.3373V62.3681Z" fill="#332A26"/>
<path d="M155.456 49.6674V57.5283C155.456 58.9617 155.103 60.1023 154.412 60.9501C153.721 61.7978 152.785 62.214 151.603 62.214C150.498 62.214 149.653 61.8595 149.07 61.1504C148.487 60.4414 148.195 59.4704 148.195 58.2219V49.6982H144.05V59.008C144.05 61.2121 144.587 62.9538 145.647 64.2177C146.706 65.4816 148.272 66.1136 150.329 66.1136C152.493 66.1136 154.197 65.2967 155.441 63.6474V65.6666H159.601V49.6982L155.456 49.6674Z" fill="#332A26"/>
<path d="M170.592 66.0828C172.772 66.0828 174.476 65.2812 175.704 63.6782V65.6358H179.895V49.6674H175.704V51.5941C174.476 50.0065 172.772 49.2204 170.592 49.2204C168.366 49.2204 166.494 50.0219 164.989 51.6249C163.485 53.2279 162.733 55.2471 162.733 57.667C162.733 60.0561 163.485 62.0598 164.989 63.6782C166.494 65.2967 168.351 66.0982 170.577 66.0982L170.592 66.0828ZM171.299 62.3681C169.994 62.3681 168.919 61.9211 168.075 61.0425C167.23 60.164 166.816 59.0234 166.816 57.6362C166.816 56.2644 167.23 55.1392 168.075 54.2606C168.919 53.3821 169.994 52.9505 171.299 52.9505C172.573 52.9505 173.647 53.3975 174.522 54.276C175.397 55.1546 175.827 56.2644 175.827 57.6053C175.827 58.9771 175.397 60.1023 174.522 60.9963C173.647 61.8903 172.573 62.3373 171.299 62.3373V62.3681Z" fill="#332A26"/>
<path d="M188.108 52.0257V49.6674H183.963V65.6358H188.108V58.6843C188.108 56.5881 188.553 55.1084 189.428 54.2452C190.303 53.3821 191.608 53.0892 193.343 53.3666V49.4516C190.887 49.1125 189.137 49.9757 188.093 52.0411L188.108 52.0257Z" fill="#332A26"/>
<path d="M202.845 66.0828C204.764 66.0828 206.391 65.6203 207.727 64.711C209.063 63.8016 209.984 62.738 210.506 61.5358L206.76 60.426C206.023 61.8286 204.734 62.5377 202.891 62.5377C201.51 62.5377 200.435 62.214 199.652 61.5512C198.869 60.8884 198.409 60.0098 198.271 58.9155H210.628C210.69 58.5764 210.721 58.0832 210.721 57.4358C210.721 55.0775 209.984 53.12 208.51 51.5633C207.036 50.0065 205.025 49.2358 202.492 49.2358C200.021 49.2358 198.01 50.0373 196.475 51.6403C194.939 53.2433 194.172 55.2625 194.172 57.6824C194.172 60.2102 194.97 62.2448 196.567 63.7861C198.163 65.3275 200.236 66.0982 202.799 66.0982L202.845 66.0828ZM198.24 56.3106C198.363 55.3396 198.808 54.5072 199.576 53.8136C200.343 53.12 201.295 52.7655 202.446 52.7655C203.644 52.7655 204.611 53.1046 205.363 53.7828C206.115 54.461 206.545 55.3087 206.652 56.3106H198.24Z" fill="#332A26"/>
<rect x="219.117" y="59.251" width="5.6091" height="5.48034" fill="#FF5200"/>
</svg>
