<svg width="61" height="60" viewBox="0 0 61 60" fill="none" xmlns="http://www.w3.org/2000/svg">
<path d="M30.1389 0.490683C46.4107 0.490683 59.6502 13.7311 59.6502 30C59.6502 46.2689 46.4107 59.5093 30.1389 59.5093C13.867 59.5093 0.631507 46.2689 0.631507 30C0.631507 13.7311 13.867 0.490683 30.1389 0.490683ZM30.1389 0C13.5975 0 0.140869 13.4576 0.140869 30C0.140869 46.5424 13.5975 60 30.1389 60C46.6802 60 60.1409 46.5424 60.1409 30C60.1409 13.4576 46.6802 0 30.1389 0Z" fill="#FFFCFA"/>
<path d="M30.1389 58.4154C14.4743 58.4154 1.72943 45.6697 1.72943 30.0041C1.72943 14.3385 14.4743 1.59277 30.1389 1.59277C45.8034 1.59277 58.5483 14.3385 58.5483 30.0041C58.5483 45.6697 45.8034 58.4154 30.1389 58.4154ZM30.1389 2.44946C14.9488 2.44946 2.59008 14.809 2.59008 30.0041C2.59008 45.1951 14.9488 57.5587 30.1389 57.5587C45.3329 57.5587 57.6916 45.1992 57.6916 30.0041C57.6916 14.809 45.3329 2.44946 30.1389 2.44946Z" fill="#FFFCFA"/>
<path d="M34.8201 48.0986C34.6673 48.0986 34.5748 48.2233 34.5748 48.344C34.5748 48.4606 34.6673 48.5893 34.8201 48.5893C34.973 48.5893 35.0655 48.4606 35.0655 48.344C35.0655 48.2233 34.969 48.0986 34.8201 48.0986ZM34.8201 48.5812C34.7035 48.5812 34.5829 48.4847 34.5829 48.344C34.5829 48.2032 34.7035 48.1067 34.8201 48.1067C34.9368 48.1067 35.0574 48.2032 35.0574 48.344C35.0574 48.4847 34.9368 48.5812 34.8201 48.5812Z" fill="#FFFCFA"/>
<path d="M31.4781 36.1334H31.3333C31.1684 36.1334 31.0276 36.242 30.9794 36.3989L30.545 37.8709C30.3681 37.2596 30.0825 36.7327 29.6965 36.3225C29.053 35.6427 28.128 35.2808 27.0301 35.2808C22.6343 35.2808 20.2052 40.3565 20.2052 43.8677C20.2052 46.9888 21.9225 49.0078 24.5808 49.0078C26.0085 49.0078 27.203 48.3442 28.0797 47.4915L27.8545 48.2678C27.8223 48.3804 27.8424 48.497 27.9148 48.5895C27.9832 48.682 28.0918 48.7343 28.2084 48.7343H28.3532C28.5181 48.7343 28.6629 48.6257 28.7071 48.4689L29.8131 44.66C29.8453 44.5474 29.8251 44.4308 29.7528 44.3383C29.6844 44.2458 29.5758 44.1895 29.4592 44.1895H29.3144C29.1495 44.1895 29.0007 44.2981 28.9605 44.4589C28.5422 45.9873 26.9014 48.1431 24.5808 48.1431C22.0029 48.1431 21.0819 45.935 21.0819 43.8677C21.0819 40.6421 23.3421 36.1415 27.0301 36.1415C27.8827 36.1415 28.5583 36.3949 29.0409 36.8936C29.62 37.4969 29.9177 38.4662 29.8734 39.6406C29.8734 39.8055 29.8734 40.0549 29.8573 40.1997C29.8453 40.3042 29.8815 40.4088 29.9498 40.4852C30.0182 40.5616 30.1187 40.6059 30.2233 40.6059H30.3681C30.5289 40.6059 30.6737 40.4973 30.722 40.3404L31.828 36.604C31.8601 36.4914 31.84 36.3747 31.7717 36.2782C31.7033 36.1897 31.5947 36.1334 31.4781 36.1334Z" fill="#FFFCFA"/>
<path d="M37.7278 36.5195C34.993 36.5195 33.312 40.1675 33.312 42.7858C33.312 44.475 34.2329 45.565 35.6566 45.565C38.4959 45.565 40.0684 41.8607 40.0684 39.2987C40.0725 37.5854 39.1716 36.5195 37.7278 36.5195ZM37.1527 44.1452C36.6781 44.5193 36.1875 44.7003 35.6566 44.7003C34.3817 44.7003 34.1927 43.4977 34.1927 42.7818C34.1927 41.2132 34.9086 38.985 36.2277 37.9353C36.7063 37.5612 37.1929 37.3802 37.7238 37.3802C38.9343 37.3802 39.1877 38.4219 39.1877 39.2987C39.1917 40.8673 38.4758 43.0995 37.1527 44.1452Z" fill="#FFFCFA"/>
<path d="M34.8201 48.103C34.7035 48.103 34.5828 48.1995 34.5828 48.3403C34.5828 48.4851 34.7035 48.5776 34.8201 48.5776C34.9367 48.5776 35.0574 48.4811 35.0574 48.3403C35.0574 48.1995 34.9367 48.103 34.8201 48.103Z" fill="#FFFCFA"/>
<path d="M34.8201 47.6201C34.422 47.6201 34.1002 47.9419 34.1002 48.34C34.1002 48.7382 34.422 49.0599 34.8201 49.0599C35.2183 49.0599 35.54 48.7382 35.54 48.34C35.54 47.9459 35.2183 47.6201 34.8201 47.6201ZM34.8201 48.5894C34.6673 48.5894 34.5748 48.4607 34.5748 48.344C34.5748 48.2274 34.6673 48.0987 34.8201 48.0987C34.9729 48.0987 35.0654 48.2234 35.0654 48.344C35.0654 48.4607 34.9689 48.5894 34.8201 48.5894Z" fill="#FFFCFA"/>
<path d="M48.2607 30.9251H12.017C11.7797 30.9251 11.5867 30.7321 11.5867 30.4948C11.5867 30.2575 11.7797 30.0645 12.017 30.0645H48.2607C48.498 30.0645 48.691 30.2575 48.691 30.4948C48.691 30.7321 48.498 30.9251 48.2607 30.9251Z" fill="#FFFCFA"/>
<path d="M20.9211 25.0852H27.8143L28.7031 22.0727H28.8479L27.9229 25.2099H18.9263L18.9826 25.0812H20.7803L24.4441 12.6331H22.6303L22.6866 12.5044H26.5676L26.5153 12.6331H24.5929L20.9211 25.0852Z" fill="#FFFCFA"/>
<path d="M27.9269 25.5799H18.9263C18.8016 25.5799 18.689 25.5196 18.6207 25.415C18.5523 25.3104 18.5402 25.1817 18.5885 25.0691L18.6448 24.9404C18.7011 24.8037 18.8378 24.7192 18.9826 24.7192H20.5028L23.9494 13.0072H22.6263C22.5016 13.0072 22.389 12.9469 22.3206 12.8423C22.2523 12.7377 22.2402 12.609 22.2885 12.4964L22.3448 12.3677C22.4011 12.2309 22.5338 12.1465 22.6826 12.1465H26.5635C26.6882 12.1465 26.8049 12.2068 26.8692 12.3114C26.9376 12.416 26.9496 12.5447 26.9014 12.6573L26.8491 12.786C26.7928 12.9227 26.6601 13.0112 26.5113 13.0112H24.8624L21.4158 24.7232H27.5448L28.3572 21.9762C28.4015 21.8194 28.5463 21.7108 28.7111 21.7108H28.8559C28.9726 21.7108 29.0811 21.7671 29.1495 21.8596C29.2179 21.9521 29.242 22.0727 29.2058 22.1854L28.2808 25.3225C28.2326 25.4753 28.0878 25.5799 27.9269 25.5799Z" fill="#FFFCFA"/>
<path d="M33.4246 25.0852H40.3178L41.2066 22.0727H41.3514L40.4264 25.2099H31.4258L31.4821 25.0812H33.2798L36.9436 12.6331H35.1298L35.1861 12.5044H39.067L39.0148 12.6331H37.0924L33.4246 25.0852Z" fill="#FFFCFA"/>
<path d="M40.4264 25.5799H31.4258C31.3011 25.5799 31.1885 25.5196 31.1202 25.415C31.0518 25.3104 31.0397 25.1817 31.088 25.0691L31.1443 24.9404C31.2006 24.8037 31.3333 24.7192 31.4821 24.7192H33.0023L36.449 13.0072H35.1258C35.0011 13.0072 34.8885 12.9469 34.8201 12.8423C34.7518 12.7377 34.7397 12.609 34.788 12.4964L34.8443 12.3677C34.9006 12.2309 35.0333 12.1465 35.1821 12.1465H39.0631C39.1877 12.1465 39.3044 12.2068 39.3727 12.3114C39.4411 12.416 39.4532 12.5447 39.4009 12.6573L39.3486 12.782C39.2923 12.9187 39.1596 13.0072 39.0108 13.0072H37.3619L33.9153 24.7192H40.0444L40.8567 21.9722C40.901 21.8153 41.0458 21.7067 41.2107 21.7067H41.3554C41.4721 21.7067 41.5807 21.7631 41.649 21.8556C41.7174 21.9481 41.7415 22.0687 41.7094 22.1813L40.7844 25.3185C40.7321 25.4753 40.5913 25.5799 40.4264 25.5799Z" fill="#FFFCFA"/>
</svg>
