<svg width="132" height="44" viewBox="0 0 132 44" fill="none" xmlns="http://www.w3.org/2000/svg">
<path d="M0 0H45.0336V44H0V0Z" fill="#0A0A0A"/>
<mask id="mask0_597_1468" style="mask-type:alpha" maskUnits="userSpaceOnUse" x="0" y="0" width="46" height="44">
<path d="M0 8.38095C0 3.75228 3.75228 0 8.38095 0H36.6527C41.2813 0 45.0336 3.75228 45.0336 8.38095V35.619C45.0336 40.2477 41.2813 44 36.6527 44H8.38096C3.75229 44 0 40.2477 0 35.619V8.38095Z" fill="#0A0A0A"/>
</mask>
<g mask="url(#mask0_597_1468)">
<path d="M24.6392 19.7682L9.32259 19.7304L9.28395 34.6955L24.6005 34.7332L24.6392 19.7682Z" fill="#0A0A0A"/>
<path d="M27.3486 17.1328L12.0321 17.095L11.9934 32.06L27.31 32.0978L27.3486 17.1328Z" fill="white"/>
<path d="M30.6416 13.933L15.325 13.8953L15.2864 28.8603L30.603 28.8981L30.6416 13.933Z" fill="#0A0A0A"/>
<path d="M33.9346 10.7328L18.618 10.695L18.5794 25.6601L33.8959 25.6978L33.9346 10.7328Z" fill="#FF5200"/>
</g>
<path d="M66.4568 10.1578C65.2426 10.1578 64.3018 10.5776 63.6424 11.4173C63.1036 10.5776 62.2674 10.1578 61.1336 10.1578C60.1123 10.1578 59.2841 10.5696 58.6569 11.385V10.3919H56.4858V18.7563H58.6569V14.558C58.6569 13.8071 58.8097 13.2258 59.1152 12.814C59.4208 12.4023 59.8631 12.1924 60.4501 12.1924C61.4874 12.1924 62.01 12.8786 62.01 14.2431V18.7563H64.2053V14.4934C64.2053 13.7587 64.3581 13.1935 64.6636 12.7898C64.9692 12.3861 65.4034 12.1843 65.9743 12.1843C67.0357 12.1843 67.5665 12.8706 67.5665 14.235V18.7482H69.7456V13.7748C69.7456 12.6284 69.4481 11.7402 68.853 11.1024C68.258 10.4646 67.4539 10.1497 66.4487 10.1497L66.4568 10.1578Z" fill="white"/>
<path d="M75.4146 18.9904C76.5564 18.9904 77.449 18.5706 78.0923 17.7309V18.7563H80.2875V10.3919H78.0923V11.4011C77.449 10.5696 76.5564 10.1578 75.4146 10.1578C74.2486 10.1578 73.2676 10.5776 72.4796 11.4173C71.6916 12.257 71.2975 13.3146 71.2975 14.5822C71.2975 15.8336 71.6916 16.8832 72.4796 17.7309C73.2676 18.5787 74.2406 18.9985 75.4066 18.9985L75.4146 18.9904ZM75.7845 17.0447C75.101 17.0447 74.5381 16.8105 74.0959 16.3503C73.6536 15.8901 73.4365 15.2927 73.4365 14.566C73.4365 13.8475 73.6536 13.2581 74.0959 12.7979C74.5381 12.3377 75.101 12.1116 75.7845 12.1116C76.4519 12.1116 77.0148 12.3458 77.4731 12.806C77.9315 13.2662 78.1566 13.8475 78.1566 14.5499C78.1566 15.2685 77.9315 15.8578 77.4731 16.3261C77.0148 16.7944 76.4519 17.0285 75.7845 17.0285V17.0447Z" fill="white"/>
<path d="M84.5895 11.6272V10.3919H82.4184V18.7563H84.5895V15.1151C84.5895 14.017 84.8227 13.242 85.2811 12.7898C85.7394 12.3377 86.4229 12.1843 87.3316 12.3296V10.2789C86.045 10.1013 85.1283 10.5534 84.5815 11.6353L84.5895 11.6272Z" fill="white"/>
<path d="M94.3193 18.7563H96.796L93.2659 13.9928L96.4663 10.3919H93.9253L90.9259 13.8475V6.6861H88.7548V18.7563H90.9259V16.6248L91.8989 15.5349L94.3193 18.7563Z" fill="white"/>
<path d="M102.795 10.1578C101.677 10.1578 100.784 10.5857 100.117 11.4496V6.6861H97.9458V18.7563H100.117V14.6226C100.117 13.8879 100.302 13.2985 100.672 12.8544C101.042 12.4104 101.524 12.1924 102.127 12.1924C102.714 12.1924 103.157 12.3781 103.454 12.7495C103.752 13.1208 103.904 13.6295 103.904 14.2835V18.7644H106.083V13.8717C106.083 12.7252 105.802 11.821 105.239 11.1589C104.676 10.4969 103.864 10.1659 102.795 10.1659V10.1578Z" fill="white"/>
<path d="M111.744 18.9904C112.886 18.9904 113.779 18.5706 114.422 17.7309V18.7563H116.617V10.3919H114.422V11.4011C113.779 10.5696 112.886 10.1578 111.744 10.1578C110.578 10.1578 109.597 10.5776 108.809 11.4173C108.021 12.257 107.627 13.3146 107.627 14.5822C107.627 15.8336 108.021 16.8832 108.809 17.7309C109.597 18.5787 110.57 18.9985 111.736 18.9985L111.744 18.9904ZM112.114 17.0447C111.431 17.0447 110.868 16.8105 110.426 16.3503C109.983 15.8901 109.766 15.2927 109.766 14.566C109.766 13.8475 109.983 13.2581 110.426 12.7979C110.868 12.3377 111.431 12.1116 112.114 12.1116C112.782 12.1116 113.345 12.3458 113.803 12.806C114.261 13.2662 114.486 13.8475 114.486 14.5499C114.486 15.2685 114.261 15.8578 113.803 16.3261C113.345 16.7944 112.782 17.0285 112.114 17.0285V17.0447Z" fill="white"/>
<path d="M128.711 10.1578C127.497 10.1578 126.556 10.5776 125.897 11.4173C125.358 10.5776 124.522 10.1578 123.388 10.1578C122.367 10.1578 121.539 10.5696 120.911 11.385V10.3919H118.74V18.7563H120.911V14.558C120.911 13.8071 121.064 13.2258 121.37 12.814C121.675 12.4023 122.117 12.1924 122.704 12.1924C123.742 12.1924 124.264 12.8786 124.264 14.2431V18.7563H126.46V14.4934C126.46 13.7587 126.612 13.1935 126.918 12.7898C127.224 12.3861 127.658 12.1843 128.229 12.1843C129.29 12.1843 129.821 12.8706 129.821 14.235V18.7482H132V13.7748C132 12.6284 131.703 11.7402 131.107 11.1024C130.512 10.4646 129.708 10.1497 128.703 10.1497L128.711 10.1578Z" fill="white"/>
<path d="M59.7746 34.6149C60.828 34.6149 61.6884 34.3565 62.3639 33.8398C63.0393 33.3231 63.377 32.6691 63.377 31.8779C63.377 31.1916 63.176 30.683 62.7659 30.3439C62.3558 30.0048 61.7768 29.7222 61.029 29.5042L58.9544 28.9068C58.4961 28.7695 58.2629 28.5515 58.2629 28.2447C58.2629 28.0429 58.3755 27.8653 58.6086 27.7119C58.8418 27.5584 59.1233 27.4858 59.453 27.4858C60.2732 27.4858 60.8682 27.8087 61.2301 28.4627L63.1599 27.8975C62.8946 27.2597 62.4282 26.7511 61.7688 26.3635C61.1094 25.976 60.3375 25.7822 59.461 25.7822C58.5363 25.7822 57.7482 26.0244 57.0969 26.5169C56.4456 27.0094 56.1159 27.5988 56.1159 28.2932C56.1159 29.3831 56.7994 30.1259 58.1744 30.5215L60.2973 31.1513C60.9164 31.3369 61.222 31.6115 61.222 31.9748C61.222 32.217 61.0934 32.4188 60.836 32.5884C60.5787 32.7579 60.249 32.8387 59.8389 32.8387C59.3002 32.8387 58.8418 32.7095 58.4559 32.4511C58.0699 32.1928 57.8045 31.8617 57.6598 31.45L55.6978 32.0232C55.9149 32.7256 56.3973 33.3312 57.1452 33.8398C57.893 34.3484 58.7614 34.6068 59.7505 34.6068L59.7746 34.6149Z" fill="white"/>
<path d="M71.2252 26.0164V27.0256C70.5819 26.194 69.6893 25.7822 68.5475 25.7822C67.3815 25.7822 66.4005 26.2021 65.6125 27.0417C64.8244 27.8814 64.4304 28.9391 64.4304 30.2066C64.4304 31.4581 64.8244 32.5076 65.6125 33.3554C66.4005 34.2031 67.3735 34.623 68.5394 34.623C69.6732 34.623 70.5658 34.2031 71.2171 33.3635V37.8605H73.4124V26.0244L71.2252 26.0164ZM68.9174 32.6691C68.2339 32.6691 67.671 32.435 67.2287 31.9748C66.7865 31.5146 66.5694 30.9171 66.5694 30.1905C66.5694 29.4719 66.7865 28.8825 67.2287 28.4223C67.671 27.9621 68.2339 27.7361 68.9174 27.7361C69.5848 27.7361 70.1477 27.9702 70.606 28.4304C71.0644 28.8906 71.2895 29.4719 71.2895 30.1743C71.2895 30.8929 71.0644 31.4823 70.606 31.9506C70.1477 32.4188 69.5848 32.653 68.9174 32.653V32.6691Z" fill="white"/>
<path d="M81.4294 26.0164V30.134C81.4294 30.8848 81.2444 31.4823 80.8826 31.9263C80.5207 32.3704 80.0302 32.5884 79.411 32.5884C78.8321 32.5884 78.3898 32.4027 78.0843 32.0313C77.7787 31.6599 77.6259 31.1513 77.6259 30.4973V26.0325H75.4548V30.909C75.4548 32.0636 75.7362 32.9759 76.2911 33.638C76.8459 34.3 77.6661 34.631 78.7436 34.631C79.8774 34.631 80.77 34.2031 81.4213 33.3392V34.3969H83.6005V26.0325L81.4294 26.0164Z" fill="white"/>
<path d="M89.3579 34.6149C90.4998 34.6149 91.3923 34.195 92.0356 33.3554V34.3807H94.2308V26.0164H92.0356V27.0256C91.3923 26.194 90.4998 25.7822 89.3579 25.7822C88.192 25.7822 87.2109 26.2021 86.4229 27.0417C85.6349 27.8814 85.2409 28.9391 85.2409 30.2066C85.2409 31.4581 85.6349 32.5076 86.4229 33.3554C87.2109 34.2031 88.1839 34.623 89.3499 34.623L89.3579 34.6149ZM89.7278 32.6691C89.0443 32.6691 88.4814 32.435 88.0392 31.9748C87.5969 31.5146 87.3798 30.9171 87.3798 30.1905C87.3798 29.4719 87.5969 28.8825 88.0392 28.4223C88.4814 27.9621 89.0443 27.7361 89.7278 27.7361C90.3952 27.7361 90.9581 27.9702 91.4165 28.4304C91.8748 28.8906 92.0999 29.4719 92.0999 30.1743C92.0999 30.8929 91.8748 31.4823 91.4165 31.9506C90.9581 32.4188 90.3952 32.653 89.7278 32.653V32.6691Z" fill="white"/>
<path d="M98.5329 27.2516V26.0164H96.3618V34.3807H98.5329V30.7395C98.5329 29.6415 98.766 28.8664 99.2244 28.4143C99.6827 27.9621 100.366 27.8087 101.275 27.9541V25.9033C99.9883 25.7257 99.0716 26.1778 98.5248 27.2597L98.5329 27.2516Z" fill="white"/>
<path d="M106.252 34.6149C107.257 34.6149 108.11 34.3727 108.809 33.8963C109.509 33.42 109.991 32.8629 110.265 32.2331L108.303 31.6518C107.917 32.3865 107.241 32.7579 106.276 32.7579C105.553 32.7579 104.99 32.5884 104.58 32.2412C104.17 31.894 103.928 31.4338 103.856 30.8606H110.329C110.361 30.683 110.377 30.4246 110.377 30.0855C110.377 28.8502 109.991 27.8249 109.22 27.0094C108.448 26.194 107.394 25.7903 106.067 25.7903C104.773 25.7903 103.719 26.2101 102.915 27.0498C102.111 27.8895 101.709 28.9471 101.709 30.2147C101.709 31.5388 102.127 32.6045 102.964 33.4119C103.8 34.2193 104.885 34.623 106.228 34.623L106.252 34.6149ZM103.84 29.4961C103.904 28.9875 104.138 28.5515 104.54 28.1882C104.942 27.8249 105.44 27.6392 106.043 27.6392C106.67 27.6392 107.177 27.8168 107.571 28.1721C107.965 28.5273 108.19 28.9714 108.247 29.4961H103.84Z" fill="white"/>
<rect x="114.776" y="31.0363" width="2.9381" height="2.87065" fill="#FF5200"/>
</svg>
