<svg width="200" height="195" viewBox="0 0 200 195" fill="none" xmlns="http://www.w3.org/2000/svg">
<path d="M76.1378 48.0401L76.0996 48.1041L76.0664 48.1708C69.6156 61.1026 66.2204 71.4974 66.2204 79.1971C66.2204 83.1714 67.4478 88.0812 69.7339 93.8425C72.0316 99.6331 75.4558 106.423 79.9818 114.2L79.9917 114.217L80.002 114.234C89.0804 129.147 93.5486 143.158 93.5854 156.299L93.2273 158.452L93.2002 158.615V158.781C93.2002 168.784 89.5803 176.853 82.3259 183.155L82.3131 183.166L82.3006 183.177C75.3428 189.43 65.1023 192.709 51.2617 192.709H48.5637C30.657 192.709 18.7164 187.789 12.0494 178.501C5.45348 168.69 2 153.34 2 132.124V126.715C2 97.2143 9.86064 68.9717 25.6238 41.9587C41.4565 14.8266 58.1517 2 75.5435 2H77.8561C82.5797 2 85.7926 3.40272 87.8809 5.91453C90.028 8.49708 91.2731 12.5901 91.2731 18.5437C91.2731 18.9091 91.0839 19.8171 90.4446 21.4671C89.8356 23.0391 88.9042 25.0747 87.6337 27.5899C85.095 32.6155 81.268 39.4269 76.1378 48.0401ZM180.552 48.0401L180.514 48.1041L180.481 48.1708C174.03 61.1026 170.635 71.4974 170.635 79.1971C170.635 83.1714 171.862 88.0812 174.148 93.8425C176.446 99.6331 179.87 106.423 184.396 114.2L184.406 114.217L184.416 114.234C193.495 129.147 197.963 143.158 198 156.299L197.642 158.452L197.615 158.615V158.781C197.615 168.784 193.995 176.853 186.74 183.155L186.727 183.166L186.715 183.177C179.757 189.43 169.517 192.709 155.676 192.709H152.978C135.071 192.709 123.131 187.789 116.464 178.501C109.868 168.69 106.414 153.34 106.414 132.124V126.715C106.414 97.2143 114.275 68.9717 130.038 41.9587C145.871 14.8266 162.566 2 179.958 2H182.27C186.994 2 190.207 3.40272 192.295 5.91453C194.442 8.49708 195.687 12.5901 195.687 18.5437C195.687 18.9091 195.498 19.8171 194.859 21.4671C194.25 23.0391 193.319 25.0747 192.048 27.5899C189.509 32.6155 185.682 39.4269 180.552 48.0401Z" stroke="#FFC2A6" stroke-width="4"/>
</svg>
