<svg width="320" height="50" viewBox="0 0 320 50" fill="none" xmlns="http://www.w3.org/2000/svg">
<g clip-path="url(#clip0_157_1215)">
<path d="M6.93073 9.98866C9.83323 9.98866 12.5018 9.94966 15.1536 10.0277C15.5547 10.0277 16.0449 10.5513 16.3179 10.9469C21.2984 18.3452 26.2659 25.751 31.2204 33.1641C31.7441 33.9385 32.3346 34.6683 33.0087 35.5653C39.0867 25.9998 45.0867 16.5625 51.2037 6.94687H38.7079C38.9363 6.50119 39.0533 6.22264 39.2093 5.97194C40.3235 4.18921 41.4377 2.38977 42.6187 0.640469C42.7491 0.461943 42.9158 0.313048 43.1078 0.203583C43.2999 0.0941179 43.5129 0.0265653 43.733 0.00537109C54.5705 0.00537109 65.4043 0.0165132 76.2343 0.0387973C76.4126 0.0387973 76.5909 0.0387973 76.8973 0.0945076C76.7887 0.360858 76.666 0.621211 76.5296 0.874452C75.4154 2.61818 74.2455 4.33963 73.187 6.11122C73.0462 6.37891 72.8277 6.59773 72.5602 6.73892C72.2928 6.88012 71.9888 6.93707 71.6884 6.90231C68.1508 6.86888 64.6132 6.90231 61.07 6.86888C60.7532 6.8316 60.4326 6.89026 60.1495 7.03725C59.8664 7.18425 59.634 7.41283 59.4823 7.69339C54.2083 15.9979 48.9214 24.2876 43.6215 32.5625C43.2538 33.1196 43.1814 33.5597 43.6215 34.1001C44.1786 34.7407 44.6187 35.4427 45.2037 36.2505C45.4655 35.8605 45.6884 35.5485 45.8889 35.2366C50.9029 27.5151 55.9614 19.816 60.9307 12.0611C61.9391 10.4845 63.0811 9.71011 65.0031 9.88281C66.8416 10.0499 68.7023 9.9218 70.9252 9.9218L45.1369 49.9942L38.8137 40.1669L32.4683 49.9998L6.93073 9.98866Z" fill="white"/>
<path d="M32.6466 30.5681C31.265 28.3397 30.0059 26.323 28.7469 24.3063C25.226 18.7798 21.6884 13.2701 18.1954 7.73246C18.0372 7.43533 17.7931 7.19287 17.4949 7.0368C17.1967 6.88074 16.8583 6.81835 16.524 6.8578C13.0254 6.90794 9.52126 6.8578 6.02265 6.91351C5.70017 6.94879 5.37465 6.88372 5.09051 6.72719C4.80636 6.57066 4.57742 6.33029 4.43491 6.03886C3.23156 4.06115 1.96137 2.11686 0.646606 0.0444336H40.0951C39.8444 0.495687 39.6717 0.829949 39.4823 1.15864C38.485 2.78538 37.46 4.45669 36.4962 6.128C36.3769 6.38731 36.1797 6.60292 35.932 6.74474C35.6844 6.88656 35.3986 6.94751 35.1146 6.91909C32.6355 6.88566 30.1564 6.91909 27.6772 6.91909H26.4516C26.7915 7.47619 27.0087 7.88287 27.2706 8.27285C30.3235 13.1865 33.3653 18.1057 36.4461 22.9971C36.6114 23.2087 36.7012 23.4695 36.7012 23.738C36.7012 24.0066 36.6114 24.2674 36.4461 24.479C35.2204 26.4121 34.0004 28.4121 32.6466 30.5681V30.5681Z" fill="white"/>
<path d="M289.115 16.1558H295.354C295.449 16.7129 295.532 17.2087 295.633 17.7658C300.023 14.841 302.764 14.8911 306.095 17.9218C307.867 16.5959 309.8 15.6934 312.084 15.6934C316.285 15.6934 318.875 17.7435 319.165 21.9162C319.443 25.9608 319.226 30.0444 319.226 34.1725H312.652V32.8689C312.652 29.9218 312.652 26.9747 312.591 24.0276C312.541 22.1781 311.655 21.2923 310.14 21.3257C309.755 21.3208 309.374 21.3943 309.019 21.5419C308.664 21.6894 308.343 21.9078 308.076 22.1836C307.808 22.4595 307.6 22.7871 307.463 23.1463C307.327 23.5055 307.265 23.8888 307.282 24.2728C307.248 27.1474 307.282 30.0221 307.282 32.8967V34.1391H301.02V28.2226V23.9664C300.959 22.2171 300.106 21.3145 298.624 21.3257C298.251 21.3168 297.879 21.382 297.53 21.5174C297.182 21.6528 296.863 21.8557 296.594 22.1146C296.324 22.3735 296.108 22.6832 295.958 23.0259C295.809 23.3685 295.728 23.7374 295.722 24.1112C295.672 26.8967 295.722 29.7157 295.722 32.5123V34.1056H289.115V16.1558ZM160.106 26.6683C161.22 22.9524 162.257 19.5541 163.287 16.1391H168.429C169.471 19.5485 170.518 22.958 171.655 26.6572C172.652 22.9413 173.566 19.5485 174.485 16.1391H180.986C180.09 18.7519 179.209 21.309 178.318 23.8661C177.248 26.9859 176.134 30.0833 175.081 33.231C175.055 33.3965 174.995 33.5549 174.905 33.6966C174.816 33.8384 174.699 33.9605 174.561 34.0558C174.423 34.151 174.267 34.2174 174.103 34.2508C173.938 34.2843 173.769 34.2842 173.605 34.2505C172.403 34.1669 171.197 34.1669 169.995 34.2505C169.176 34.3062 168.881 33.9719 168.647 33.2366C167.856 30.7463 166.975 28.2783 166.162 25.8048C166.106 25.6432 166.034 25.4872 165.856 25.0471L162.764 34.2282H157.61C157.466 34.2086 157.329 34.155 157.21 34.0716C157.091 33.9883 156.993 33.8777 156.925 33.7491C154.869 27.9385 152.842 22.1168 150.797 16.2003H157.315C158.195 19.5652 159.109 22.958 160.106 26.6683V26.6683ZM203.131 8.49561H209.616V17.4093C210.443 16.6735 211.432 16.1429 212.503 15.8603C213.573 15.5777 214.695 15.551 215.778 15.7825C218.992 16.4176 221.432 19.0973 221.878 22.6627C222.091 24.2434 222.066 25.847 221.805 27.4204C221.087 31.3201 218.379 33.8884 214.407 34.6015C210.796 35.1929 207.093 34.8456 203.655 33.5931C203.494 33.5191 203.353 33.4078 203.243 33.2682C203.134 33.1287 203.059 32.965 203.025 32.7909C203.003 24.7872 203.003 16.7834 203.025 8.77973C203.05 8.6814 203.086 8.58611 203.131 8.49561V8.49561ZM209.56 26.3508H209.661V28.6349C209.661 28.8744 209.839 29.2533 210.023 29.3145C212.028 29.9831 214.19 29.5931 214.998 27.5541C215.591 26.0951 215.613 24.4659 215.059 22.9914C214.908 22.4426 214.577 21.9603 214.12 21.6219C213.662 21.2835 213.104 21.1085 212.535 21.1251C211.928 21.0805 211.325 21.2591 210.84 21.6273C210.355 21.9955 210.021 22.5281 209.9 23.1251C209.711 24.1909 209.597 25.2689 209.56 26.3508V26.3508ZM121.204 34.1836H114.652V31.2254C114.652 28.9357 114.708 26.6405 114.652 24.3508C114.569 21.9218 113.154 20.8744 111.009 21.5262C109.895 21.8605 109.226 22.8744 109.209 24.3118V34.1056H102.596V8.5346H109.115V17.6488C109.848 16.9728 110.708 16.4486 111.645 16.1064C112.582 15.7641 113.578 15.6105 114.574 15.6544C118.401 15.6989 121.003 17.9329 121.165 21.7825C121.337 25.8549 121.204 29.9664 121.204 34.1836ZM278.691 22.6516C278.691 21.2588 278.268 20.7184 277.02 20.4232C274.719 19.9106 272.63 20.568 270.535 21.6934C269.733 20.4622 268.92 19.2254 268.062 17.9218C269.439 16.8742 271.035 16.1505 272.73 15.8048C275.365 15.2477 278.006 15.114 280.591 16.0666C283.415 17.1028 285.048 19.192 285.126 22.1446C285.271 26.1056 285.165 30.0722 285.165 34.1223H279.02L278.741 32.6126C278.035 33.372 277.169 33.9657 276.205 34.351C275.242 34.7362 274.206 34.9036 273.17 34.841C270.563 34.7742 268.546 33.6154 267.817 31.621C267.359 30.4231 267.282 29.1133 267.596 27.8701C267.91 26.6269 268.6 25.5108 269.571 24.6739C271.245 23.3527 273.311 22.6291 275.443 22.6182C276.524 22.6182 277.61 22.6516 278.691 22.6516V22.6516ZM278.992 27.3313C278.747 26.9691 278.507 26.3062 278.257 26.3006C277.183 26.2364 276.106 26.3398 275.064 26.607C274.023 26.9301 273.661 28.0666 273.95 29.1418C274.229 30.1001 275.025 30.5847 276.179 30.49C277.889 30.3508 278.686 29.4148 278.992 27.3313V27.3313ZM142.752 27.0081H130.541C130.446 28.4399 131.466 29.5262 133.126 29.8716C135.182 30.2476 137.303 29.9973 139.215 29.153C139.477 29.0471 139.722 28.9079 140.056 28.7519L142.223 33.1697C140.488 33.7666 138.723 34.2761 136.936 34.6962C134.744 35.1228 132.481 35.0042 130.346 34.3508C126.736 33.2366 124.68 30.7519 124.218 27.0416C123.722 23.0416 124.635 19.4538 128.117 17.0137C129.403 16.0678 130.916 15.4788 132.502 15.3068C134.089 15.1348 135.693 15.3857 137.151 16.0342C138.609 16.6827 139.87 17.7056 140.805 18.9989C141.74 20.2923 142.315 21.8101 142.474 23.3981C142.613 24.5123 142.652 25.6934 142.752 27.0081V27.0081ZM136.752 23.0471C136.718 22.6441 136.603 22.2521 136.416 21.8935C136.229 21.5349 135.972 21.217 135.661 20.9581C135.351 20.6991 134.992 20.5042 134.605 20.3847C134.219 20.2652 133.813 20.2233 133.41 20.2616C132.658 20.254 131.933 20.5413 131.39 21.0621C130.848 21.5828 130.531 22.2954 130.507 23.0471H136.752ZM200.09 27.0193H187.833C187.922 28.5513 188.869 29.5374 190.457 29.8661C192.574 30.3006 194.357 30.0388 197.421 28.802C197.755 29.465 198.101 30.1391 198.435 30.8132C198.769 31.4872 199.092 32.1781 199.549 33.1697C197.739 33.7268 196.051 34.3563 194.307 34.6906C192.114 35.1114 189.851 34.9987 187.711 34.3619C185.933 33.8924 184.36 32.8497 183.235 31.3953C182.109 29.9409 181.496 28.1561 181.488 26.3173C181.422 24.8674 181.575 23.4158 181.939 22.0109C183.148 17.5151 187.042 15.0639 192.084 15.4594C196.162 15.7825 199.282 18.958 199.811 23.3591C199.961 24.5123 200.006 25.6655 200.09 27.0193V27.0193ZM194.073 23.036C194.039 22.6324 193.926 22.2396 193.739 21.8803C193.552 21.521 193.296 21.2025 192.985 20.9433C192.674 20.6841 192.314 20.4893 191.927 20.3704C191.54 20.2514 191.133 20.2107 190.73 20.2505C189.975 20.2412 189.246 20.5272 188.699 21.0475C188.151 21.5678 187.829 22.2813 187.8 23.036H194.073ZM265.761 27.0081H253.505C253.571 28.529 254.524 29.5318 256.106 29.8661C258.24 30.3118 260.106 30.0276 263.081 28.7909C263.415 29.4594 263.761 30.1279 264.095 30.802C264.429 31.4761 264.752 32.1669 265.209 33.1474C263.538 33.6711 261.945 34.2616 260.312 34.6349C258.128 35.0971 255.864 35.0302 253.711 34.4399C250.078 33.4594 247.889 31.0973 247.298 27.4037C246.674 23.4483 247.466 19.8605 250.741 17.3034C256.535 12.7797 264.574 16.1892 265.488 23.4315C265.644 24.5959 265.672 25.7491 265.761 27.0081V27.0081ZM253.505 23.0249H259.761C259.729 22.6208 259.616 22.2271 259.43 21.8671C259.244 21.5071 258.987 21.188 258.676 20.9285C258.364 20.669 258.004 20.4743 257.617 20.356C257.229 20.2376 256.821 20.198 256.418 20.2393C255.666 20.2358 254.942 20.5242 254.399 21.0438C253.856 21.5634 253.535 22.2736 253.505 23.0249ZM86.8862 21.1251H84.2678V16.1112H86.8416V10.2783H93.3931V16.0388H97.85V21.0806H93.3931V27.2421C93.3931 29.27 94.7079 30.1446 96.5965 29.4093C96.9976 29.2477 97.3709 29.0193 97.85 28.7797L100.401 32.7909C99.0503 33.9651 97.3649 34.686 95.5826 34.8522C94.6037 34.9665 93.6137 34.944 92.6411 34.7853C88.9475 34.1613 86.9586 31.7324 86.8527 27.7379C86.836 25.5708 86.8862 23.426 86.8862 21.1251V21.1251ZM244.324 21.1251H239.867V27.3368C239.906 29.1976 241.103 30.0388 242.875 29.4315C243.349 29.27 243.794 29.0193 244.34 28.7686L246.886 32.763C245.612 33.9248 243.991 34.6354 242.273 34.7853C240.861 34.9148 239.438 34.8189 238.056 34.5012C235.126 33.8048 233.432 31.2588 233.343 27.6934C233.287 25.5541 233.343 23.4148 233.343 21.153H230.73V16.1558H233.282V10.2728H239.872V16.0499H244.329L244.324 21.1251Z" fill="white"/>
</g>
<defs>
<clipPath id="clip0_157_1215">
<rect width="318.674" height="50" fill="white" transform="translate(0.646606)"/>
</clipPath>
</defs>
</svg>
